<svg xmlns="http://www.w3.org/2000/svg" xmlns:xlink="http://www.w3.org/1999/xlink" width="385" zoomAndPan="magnify" viewBox="0 0 288.75 288.749996" height="385" preserveAspectRatio="xMidYMid meet" version="1.0"><defs><clipPath id="8ffeec0edf"><path d="M 38 38 L 250 38 L 250 250 L 38 250 Z M 38 38 " clip-rule="nonzero"/></clipPath><clipPath id="9e25149c22"><path d="M 0 105.519531 L 182.765625 0 L 288.28125 182.761719 L 105.519531 288.28125 Z M 0 105.519531 " clip-rule="nonzero"/></clipPath><clipPath id="db67ce3fa7"><path d="M 91.382812 52.757812 C 40.914062 81.898438 23.621094 146.429688 52.757812 196.898438 C 81.898438 247.367188 146.433594 264.660156 196.902344 235.523438 C 247.371094 206.382812 264.660156 141.851562 235.523438 91.382812 C 206.386719 40.914062 141.851562 23.621094 91.382812 52.757812 Z M 91.382812 52.757812 " clip-rule="nonzero"/></clipPath><clipPath id="6bcf34a774"><path d="M 149 97 L 231 97 L 231 188 L 149 188 Z M 149 97 " clip-rule="nonzero"/></clipPath><clipPath id="9a389c63de"><path d="M 147.09375 104.875 L 227.835938 93.34375 L 240.703125 183.417969 L 159.960938 194.953125 Z M 147.09375 104.875 " clip-rule="nonzero"/></clipPath><clipPath id="31b3284eb6"><path d="M 227.632812 93.371094 L 146.890625 104.90625 L 159.757812 194.980469 L 240.5 183.449219 Z M 227.632812 93.371094 " clip-rule="nonzero"/></clipPath><clipPath id="eb92365e13"><path d="M 69 100.621094 L 89 100.621094 L 89 120 L 69 120 Z M 69 100.621094 " clip-rule="nonzero"/></clipPath><clipPath id="a7c3b40ab2"><path d="M 60.773438 109 L 114 109 L 114 194.910156 L 60.773438 194.910156 Z M 60.773438 109 " clip-rule="nonzero"/></clipPath><clipPath id="6bc268fabf"><path d="M 111 126 L 154.589844 126 L 154.589844 194.910156 L 111 194.910156 Z M 111 126 " clip-rule="nonzero"/></clipPath></defs><g clip-path="url(#8ffeec0edf)"><g clip-path="url(#9e25149c22)"><g clip-path="url(#db67ce3fa7)"><path fill="#ff9800" d="M 0 105.519531 L 182.765625 0 L 288.28125 182.761719 L 105.519531 288.28125 Z M 0 105.519531 " fill-opacity="1" fill-rule="nonzero"/></g></g></g><g clip-path="url(#6bcf34a774)"><g clip-path="url(#9a389c63de)"><g clip-path="url(#31b3284eb6)"><path fill="#ffffff" d="M 211.019531 187.609375 C 211.296875 187.554688 211.765625 187.484375 212.214844 187.363281 C 213.835938 186.929688 214.570312 185.804688 214.425781 184.019531 C 214.316406 182.675781 213.90625 181.402344 213.523438 180.128906 C 212.605469 177.0625 211.992188 173.929688 211.453125 170.78125 C 210.65625 166.105469 209.761719 161.441406 208.347656 156.90625 C 205.5 147.789062 201.417969 139.289062 195.476562 131.75 C 195.433594 131.691406 195.386719 131.640625 195.339844 131.582031 C 195.109375 131.285156 194.800781 131.179688 194.488281 131.398438 C 194.160156 131.632812 194.21875 131.957031 194.4375 132.253906 C 194.898438 132.878906 195.363281 133.496094 195.828125 134.117188 C 196.179688 134.59375 196.523438 135.082031 196.886719 135.550781 C 197.035156 135.738281 197.011719 135.84375 196.816406 135.976562 C 196.09375 136.46875 195.289062 136.777344 194.46875 137.0625 C 194.195312 137.15625 194.125 136.957031 194.023438 136.796875 C 193.015625 135.167969 191.863281 133.652344 190.679688 132.152344 C 190.222656 131.570312 189.878906 131.421875 189.585938 131.714844 C 189.148438 132.152344 189.496094 132.5 189.769531 132.835938 C 193.722656 137.65625 196.410156 143.179688 198.675781 148.933594 C 200.96875 154.742188 202.382812 160.761719 203.003906 166.972656 C 203.34375 170.371094 203.34375 173.777344 203.320312 177.183594 C 203.304688 179.273438 203.128906 181.363281 203.25 183.453125 C 203.433594 186.683594 204.460938 187.695312 207.703125 187.78125 C 208.75 187.8125 209.796875 187.765625 211.019531 187.609375 Z M 204.414062 183.878906 C 204.394531 183.582031 204.34375 183.167969 204.351562 182.753906 C 204.382812 180.109375 204.4375 177.460938 204.460938 174.8125 C 204.464844 174.472656 204.5625 174.433594 204.863281 174.476562 C 206.75 174.757812 208.570312 174.488281 210.3125 173.746094 C 210.753906 173.558594 210.832031 173.652344 210.910156 174.078125 C 211.359375 176.488281 211.949219 178.863281 212.660156 181.214844 C 212.988281 182.316406 213.359375 183.417969 213.292969 184.601562 C 213.238281 185.507812 212.914062 185.960938 212.054688 186.214844 C 210.386719 186.703125 208.671875 186.714844 206.960938 186.589844 C 205.214844 186.460938 204.699219 185.933594 204.460938 184.210938 C 204.449219 184.140625 204.441406 184.066406 204.414062 183.878906 Z M 203.792969 164.5 C 203.625 163.320312 203.476562 162.136719 203.277344 160.964844 C 203.210938 160.566406 203.28125 160.46875 203.679688 160.503906 C 205.046875 160.628906 206.378906 160.445312 207.664062 159.964844 C 207.964844 159.855469 208.035156 159.941406 208.09375 160.203125 C 208.273438 160.976562 208.484375 161.742188 208.65625 162.515625 C 209.355469 165.667969 210.027344 168.824219 210.523438 172.019531 C 210.5625 172.269531 210.519531 172.417969 210.277344 172.53125 C 208.53125 173.34375 206.710938 173.640625 204.800781 173.328125 C 204.542969 173.285156 204.445312 173.179688 204.445312 172.902344 C 204.449219 170.085938 204.203125 167.28125 203.792969 164.5 Z M 205.65625 159.316406 C 204.902344 159.449219 204.152344 159.410156 203.394531 159.351562 C 203.0625 159.324219 202.933594 159.191406 202.863281 158.878906 C 202.15625 155.5625 201.207031 152.316406 199.972656 149.15625 C 199.824219 148.777344 199.945312 148.699219 200.285156 148.648438 C 201.3125 148.496094 202.28125 148.160156 203.164062 147.621094 C 203.488281 147.421875 203.609375 147.480469 203.738281 147.804688 C 204.222656 149.007812 204.742188 150.195312 205.210938 151.402344 C 206.101562 153.679688 206.914062 155.988281 207.597656 158.34375 C 207.691406 158.65625 207.640625 158.78125 207.324219 158.886719 C 206.777344 159.070312 206.230469 159.246094 205.65625 159.316406 Z M 194.839844 138.144531 C 195.734375 137.832031 196.597656 137.515625 197.351562 136.980469 C 197.644531 136.773438 197.777344 136.8125 197.96875 137.113281 C 199.777344 139.976562 201.425781 142.921875 202.894531 145.976562 C 203.039062 146.277344 202.980469 146.414062 202.714844 146.570312 C 201.851562 147.078125 200.929688 147.40625 199.9375 147.570312 C 199.53125 147.636719 199.347656 147.5625 199.179688 147.15625 C 198.648438 145.839844 198.070312 144.539062 197.484375 143.246094 C 196.699219 141.507812 195.773438 139.84375 194.839844 138.144531 Z M 164.496094 132.246094 C 163.046875 133.648438 161.800781 135.210938 160.734375 136.914062 C 160.492188 137.300781 160.4375 137.714844 160.492188 138.160156 C 160.675781 139.59375 161.417969 140.800781 162.074219 142.039062 C 162.132812 142.152344 162.226562 142.246094 162.273438 142.359375 C 162.402344 142.648438 162.515625 142.96875 162.1875 143.1875 C 161.882812 143.390625 161.589844 143.261719 161.378906 142.996094 C 161.210938 142.785156 161.058594 142.5625 160.925781 142.328125 C 160.375 141.363281 159.921875 140.351562 159.527344 139.296875 C 159.308594 139.40625 159.289062 139.597656 159.21875 139.753906 C 158.777344 140.703125 158.464844 141.703125 158.089844 142.679688 C 157.699219 143.691406 157.882812 144.578125 158.425781 145.449219 C 158.730469 145.9375 159.042969 146.421875 159.332031 146.917969 C 159.476562 147.167969 159.519531 147.460938 159.261719 147.65625 C 159 147.855469 158.710938 147.800781 158.472656 147.574219 C 158.203125 147.324219 158.046875 146.996094 157.84375 146.703125 C 157.695312 146.492188 157.625 146.226562 157.363281 146.042969 C 157.207031 146.796875 157.15625 147.511719 157.121094 148.230469 C 157.09375 148.769531 157.109375 149.3125 157.089844 149.851562 C 157.078125 150.238281 156.980469 150.605469 156.5 150.601562 C 156.058594 150.59375 155.957031 150.253906 155.9375 149.878906 C 155.9375 149.808594 155.9375 149.734375 155.9375 149.664062 C 155.945312 144.832031 157.183594 140.335938 159.804688 136.28125 C 164.34375 129.246094 170.734375 125.179688 179.15625 124.496094 C 179.980469 124.429688 180.8125 124.472656 181.644531 124.488281 C 182.03125 124.496094 182.398438 124.628906 182.371094 125.105469 C 182.34375 125.585938 181.964844 125.632812 181.574219 125.621094 C 181.414062 125.613281 181.25 125.605469 181.089844 125.601562 C 180.222656 125.585938 179.359375 125.625 178.492188 125.667969 C 177.839844 125.703125 177.527344 126.042969 177.320312 126.585938 C 177.019531 127.378906 176.757812 128.183594 176.578125 129.011719 C 176.535156 129.203125 176.484375 129.398438 176.40625 129.578125 C 176.296875 129.816406 176.082031 129.921875 175.824219 129.871094 C 175.59375 129.820312 175.460938 129.660156 175.421875 129.417969 C 175.378906 129.160156 175.425781 128.914062 175.480469 128.667969 C 175.640625 127.929688 175.886719 127.214844 176.128906 126.496094 C 176.164062 126.390625 176.285156 126.195312 176.207031 126.097656 C 176.125 125.996094 175.878906 126.074219 175.753906 126.113281 C 174.578125 126.46875 174.78125 126.335938 173.152344 126.847656 C 172.550781 127.039062 172.1875 127.421875 171.914062 127.960938 C 171.347656 129.078125 171.324219 130.289062 171.257812 131.492188 C 171.207031 132.464844 171.203125 133.4375 171.273438 134.410156 C 171.296875 134.722656 171.234375 135.003906 170.878906 135.078125 C 170.496094 135.15625 170.320312 134.910156 170.210938 134.59375 C 170.152344 134.433594 170.136719 134.304688 170.132812 134.28125 C 170.042969 133.398438 170 130.054688 170.324219 128.898438 C 170.457031 128.421875 170.503906 128.304688 170.503906 128.304688 C 170.597656 128.074219 170.691406 127.914062 170.652344 127.878906 C 170.628906 127.859375 170.570312 127.902344 170.375 128.019531 C 170.289062 128.074219 170.195312 128.125 170.109375 128.179688 C 169.761719 128.402344 168.222656 129.246094 167.203125 129.960938 C 166.800781 130.242188 166.535156 130.605469 166.351562 131.046875 C 165.84375 132.257812 165.75 133.523438 165.824219 134.8125 C 165.898438 136.09375 166.023438 137.367188 166.277344 138.628906 C 166.332031 138.917969 166.300781 139.179688 165.976562 139.292969 C 165.648438 139.410156 165.417969 139.261719 165.273438 138.96875 C 165.203125 138.824219 165.144531 138.667969 165.113281 138.511719 C 164.777344 136.714844 164.609375 134.90625 164.699219 133.074219 C 164.71875 132.742188 164.773438 132.414062 164.8125 132.078125 C 164.632812 132.078125 164.570312 132.175781 164.496094 132.246094 Z M 202.222656 117.070312 C 202.613281 117.519531 202.976562 117.992188 203.25 118.523438 C 203.386719 118.796875 203.351562 119.0625 203.09375 119.246094 C 202.828125 119.433594 202.570312 119.351562 202.363281 119.132812 C 202.207031 118.960938 202.074219 118.765625 201.9375 118.574219 C 201.015625 117.277344 199.871094 116.226562 198.488281 115.433594 C 198.089844 115.207031 197.746094 115.214844 197.339844 115.46875 C 195.34375 116.71875 193.507812 118.160156 191.886719 119.871094 C 191.789062 119.976562 191.695312 120.097656 191.574219 120.167969 C 191.328125 120.320312 191.0625 120.367188 190.835938 120.132812 C 190.613281 119.902344 190.628906 119.644531 190.808594 119.398438 C 190.925781 119.238281 191.058594 119.089844 191.199219 118.949219 C 195.183594 114.824219 200.019531 112.191406 205.601562 110.996094 C 213.027344 109.398438 220.113281 110.4375 226.796875 114.078125 C 228.066406 114.769531 229.265625 115.574219 230.40625 116.460938 C 230.890625 116.835938 230.9375 117.351562 230.519531 117.558594 C 230.214844 117.710938 229.96875 117.5625 229.726562 117.378906 C 228.742188 116.621094 227.714844 115.914062 226.628906 115.304688 C 226.4375 115.195312 226.269531 115.003906 225.976562 115.035156 C 226.226562 115.804688 226.335938 116.570312 226.324219 117.347656 C 226.320312 117.746094 226.242188 118.160156 225.726562 118.140625 C 225.257812 118.125 225.175781 117.75 225.183594 117.355469 C 225.199219 116.847656 225.144531 116.34375 225.019531 115.855469 C 224.746094 114.78125 224.277344 113.929688 223.09375 113.539062 C 221.691406 113.082031 220.3125 112.550781 218.871094 112.21875 C 218.039062 112.027344 217.203125 111.835938 216.265625 111.746094 C 216.367188 111.933594 216.429688 112.054688 216.5 112.171875 C 217.058594 113.117188 217.574219 114.085938 217.976562 115.109375 C 218.226562 115.746094 218.433594 116.402344 218.550781 117.078125 C 218.601562 117.386719 218.472656 117.617188 218.167969 117.707031 C 217.859375 117.796875 217.644531 117.636719 217.503906 117.375 C 217.449219 117.265625 217.425781 117.136719 217.394531 117.015625 C 216.90625 115.183594 216.078125 113.515625 214.972656 111.980469 C 214.746094 111.667969 214.484375 111.511719 214.082031 111.488281 C 213.109375 111.425781 212.136719 111.40625 211.164062 111.4375 C 209.800781 111.472656 208.445312 111.621094 207.105469 111.867188 C 207.113281 112.058594 207.246094 112.105469 207.328125 112.195312 C 208.707031 113.707031 209.90625 115.34375 210.632812 117.28125 C 210.695312 117.449219 210.746094 117.621094 210.777344 117.796875 C 210.824219 118.101562 210.726562 118.34375 210.417969 118.441406 C 210.109375 118.535156 209.890625 118.378906 209.753906 118.113281 C 209.652344 117.921875 209.589844 117.714844 209.503906 117.515625 C 208.710938 115.628906 207.542969 114.003906 206.078125 112.582031 C 205.726562 112.242188 205.375 112.160156 204.910156 112.300781 C 203.894531 112.605469 202.867188 112.886719 201.878906 113.273438 C 200.980469 113.625 200.085938 113.980469 199.191406 114.488281 C 200.359375 115.230469 201.355469 116.078125 202.222656 117.070312 Z M 154.609375 117.339844 C 153.21875 117.945312 151.917969 118.710938 150.6875 119.601562 C 150.085938 120.042969 149.753906 120.089844 149.515625 119.769531 C 149.273438 119.4375 149.417969 119.121094 150.011719 118.6875 C 154.90625 115.125 160.394531 113.914062 166.339844 114.648438 C 171.867188 115.332031 176.773438 117.597656 181.339844 120.6875 C 181.429688 120.75 181.515625 120.816406 181.582031 120.898438 C 181.761719 121.113281 181.808594 121.351562 181.644531 121.59375 C 181.488281 121.820312 181.25 121.859375 181.015625 121.785156 C 180.832031 121.726562 180.664062 121.605469 180.503906 121.496094 C 179.351562 120.714844 178.160156 120 176.9375 119.339844 C 176.660156 119.191406 176.378906 119.113281 176.0625 119.128906 C 174.214844 119.21875 172.59375 119.898438 171.164062 121.039062 C 170.585938 121.496094 170.0625 122.023438 169.511719 122.515625 C 169.242188 122.761719 168.945312 122.867188 168.652344 122.578125 C 168.359375 122.289062 168.460938 121.972656 168.714844 121.71875 C 170.109375 120.316406 171.597656 119.046875 173.546875 118.464844 C 173.828125 118.382812 174.101562 118.285156 174.488281 118.15625 C 173.523438 117.722656 172.640625 117.425781 171.777344 117.082031 C 171.136719 116.828125 170.546875 116.875 169.9375 117.097656 C 169.414062 117.285156 168.90625 117.515625 168.414062 117.78125 C 166.636719 118.730469 165.175781 120.046875 163.855469 121.550781 C 163.609375 121.828125 163.296875 122.015625 162.964844 121.738281 C 162.609375 121.441406 162.746094 121.089844 163.015625 120.792969 C 164.015625 119.679688 165.050781 118.601562 166.300781 117.753906 C 167.085938 117.222656 167.898438 116.75 168.824219 116.273438 C 167.574219 115.957031 166.402344 115.796875 165.222656 115.6875 C 165.109375 115.675781 164.980469 115.742188 164.867188 115.785156 C 163.082031 116.46875 161.554688 117.511719 160.308594 118.96875 C 159.753906 119.617188 159.300781 120.332031 158.835938 121.039062 C 158.625 121.359375 158.351562 121.636719 157.945312 121.382812 C 157.535156 121.128906 157.679688 120.761719 157.875 120.4375 C 158.996094 118.574219 160.363281 116.941406 162.257812 115.8125 C 162.3125 115.78125 162.390625 115.746094 162.363281 115.613281 C 161.308594 115.613281 160.265625 115.800781 159.21875 115.929688 C 158.3125 116.042969 157.59375 116.472656 156.9375 117.0625 C 156.375 117.574219 155.878906 118.144531 155.460938 118.78125 C 154.914062 119.613281 154.480469 120.503906 154.050781 121.398438 C 153.886719 121.742188 153.652344 122 153.25 121.824219 C 152.851562 121.644531 152.867188 121.273438 153.019531 120.9375 C 153.546875 119.789062 154.105469 118.660156 154.867188 117.640625 C 154.96875 117.507812 155.152344 117.410156 155.117188 117.1875 C 154.921875 117.164062 154.769531 117.269531 154.609375 117.339844 Z M 203.03125 130.488281 C 203.003906 131.226562 202.8125 131.515625 202.402344 131.503906 C 201.988281 131.492188 201.847656 131.191406 201.886719 130.441406 C 201.976562 128.625 201.753906 126.855469 200.816406 125.273438 C 199.855469 123.648438 200.214844 123.808594 198.410156 124.246094 C 198.253906 124.285156 198.097656 124.332031 197.941406 124.375 C 197.582031 124.484375 197.238281 124.496094 197.09375 124.066406 C 196.949219 123.644531 197.226562 123.425781 197.574219 123.296875 C 198.390625 122.996094 199.246094 122.8125 200.105469 122.742188 C 202.109375 122.570312 204.101562 122.738281 206.054688 123.226562 C 212.882812 124.925781 218.542969 128.539062 223.210938 133.75 C 224.964844 135.707031 226.367188 137.902344 227.324219 140.363281 C 227.472656 140.75 227.582031 141.152344 227.089844 141.378906 C 226.726562 141.550781 226.433594 141.339844 226.242188 140.804688 C 225.578125 138.933594 224.546875 137.269531 223.347656 135.707031 C 223.265625 135.601562 223.214844 135.441406 223.023438 135.433594 C 223.011719 135.632812 223.011719 135.832031 222.996094 136.027344 C 222.929688 136.878906 222.710938 137.691406 222.363281 138.472656 C 222.210938 138.804688 221.949219 139.011719 221.585938 138.871094 C 221.207031 138.722656 221.21875 138.378906 221.320312 138.042969 C 221.347656 137.957031 221.382812 137.871094 221.417969 137.789062 C 221.863281 136.671875 221.972656 135.527344 221.765625 134.339844 C 221.691406 133.914062 221.539062 133.5625 221.230469 133.253906 C 219.878906 131.890625 218.429688 130.652344 216.878906 129.527344 C 216.785156 129.460938 216.699219 129.332031 216.480469 129.441406 C 216.539062 129.839844 216.609375 130.261719 216.65625 130.6875 C 216.769531 131.746094 216.554688 132.765625 216.226562 133.765625 C 216.113281 134.101562 215.867188 134.28125 215.515625 134.179688 C 215.160156 134.074219 215.074219 133.789062 215.152344 133.445312 C 215.183594 133.304688 215.210938 133.164062 215.257812 133.027344 C 215.636719 131.859375 215.625 130.679688 215.355469 129.5 C 215.226562 128.933594 215.136719 128.324219 214.546875 127.976562 C 212.960938 127.042969 211.332031 126.195312 209.617188 125.523438 C 209.496094 125.480469 209.371094 125.359375 209.191406 125.496094 C 209.652344 126.539062 209.828125 127.65625 209.925781 128.789062 C 210 129.671875 209.957031 130.550781 209.765625 131.421875 C 209.683594 131.800781 209.492188 132.085938 209.070312 132.007812 C 208.640625 131.925781 208.605469 131.566406 208.652344 131.195312 C 208.660156 131.144531 208.679688 131.09375 208.6875 131.039062 C 208.925781 129.554688 208.832031 128.09375 208.402344 126.652344 C 208.035156 125.417969 207.414062 124.554688 205.980469 124.34375 C 204.453125 124.117188 202.941406 123.800781 201.320312 123.828125 C 202.945312 126.421875 203.097656 128.566406 203.03125 130.488281 Z M 175.503906 146.136719 C 176.558594 147.621094 177.679688 148.859375 178.863281 150.042969 C 179.128906 150.3125 179.398438 150.582031 179.734375 150.769531 C 180.023438 150.929688 180.332031 151.003906 180.554688 150.691406 C 180.773438 150.390625 180.636719 150.105469 180.378906 149.886719 C 179.386719 149.042969 178.53125 148.066406 177.679688 147.085938 C 177.015625 146.324219 176.414062 145.519531 176.027344 144.570312 C 175.875 144.191406 175.808594 143.824219 175.90625 143.414062 C 176.171875 142.277344 176.464844 141.144531 176.894531 140.042969 C 177.121094 140.105469 177.136719 140.308594 177.222656 140.449219 C 178.140625 142.007812 179.253906 143.421875 180.484375 144.742188 C 180.695312 144.964844 180.925781 145.171875 181.207031 145.300781 C 181.472656 145.417969 181.742188 145.445312 181.9375 145.175781 C 182.144531 144.886719 182.058594 144.609375 181.8125 144.40625 C 180.75 143.519531 179.957031 142.398438 179.140625 141.304688 C 178.566406 140.539062 178.039062 139.742188 177.738281 138.820312 C 177.664062 138.59375 177.597656 138.359375 177.699219 138.132812 C 178.242188 136.957031 178.878906 135.835938 179.703125 134.679688 C 180.140625 136.328125 181.121094 137.546875 182.054688 138.792969 C 182.300781 139.125 182.582031 139.433594 182.875 139.722656 C 183.152344 139.996094 183.511719 140.148438 183.828125 139.824219 C 184.152344 139.496094 183.910156 139.195312 183.664062 138.933594 C 182.914062 138.125 182.292969 137.21875 181.675781 136.308594 C 181.394531 135.890625 181.179688 135.433594 180.988281 134.964844 C 180.609375 134.027344 180.53125 133.152344 181.433594 132.433594 C 181.570312 132.324219 181.675781 132.164062 181.777344 132.015625 C 181.945312 131.765625 181.964844 131.503906 181.738281 131.28125 C 181.488281 131.035156 181.210938 131.09375 180.957031 131.28125 C 180.855469 131.355469 180.777344 131.457031 180.691406 131.554688 C 176.320312 136.582031 174.125 142.40625 174.277344 149.09375 C 174.355469 152.46875 175.105469 155.699219 176.363281 158.820312 C 176.382812 158.871094 176.410156 158.917969 176.429688 158.96875 C 176.59375 159.355469 176.796875 159.742188 177.296875 159.53125 C 177.773438 159.328125 177.640625 158.902344 177.496094 158.546875 C 176.910156 157.148438 176.453125 155.707031 176.09375 154.238281 C 176.070312 154.144531 176.042969 154.035156 176.003906 153.839844 C 175.953125 153.574219 175.949219 153.515625 175.96875 153.503906 C 176 153.492188 176.050781 153.589844 176.175781 153.734375 C 176.265625 153.835938 176.324219 153.882812 176.449219 154.007812 C 176.871094 154.425781 177.28125 154.859375 177.78125 155.191406 C 177.957031 155.308594 178.15625 155.40625 178.355469 155.480469 C 178.636719 155.585938 178.910156 155.550781 179.058594 155.265625 C 179.21875 154.964844 179.117188 154.691406 178.832031 154.523438 C 177.949219 154 177.300781 153.21875 176.609375 152.484375 C 175.777344 151.601562 175.375 150.59375 175.40625 149.355469 C 175.433594 148.335938 175.398438 147.316406 175.503906 146.136719 Z M 187.195312 113.398438 C 187.207031 113.410156 187.265625 113.367188 187.304688 113.351562 C 187.644531 113.148438 187.984375 112.949219 188.320312 112.746094 C 189.578125 111.984375 190.972656 111.640625 192.402344 111.40625 C 192.761719 111.34375 193.082031 111.414062 193.15625 111.820312 C 193.238281 112.253906 192.949219 112.429688 192.574219 112.511719 C 192.449219 112.535156 192.324219 112.554688 192.203125 112.578125 C 190.714844 112.855469 189.320312 113.359375 188.074219 114.242188 C 187.25 114.824219 186.476562 115.421875 186.515625 116.589844 C 186.527344 116.953125 186.289062 117.210938 185.890625 117.175781 C 185.507812 117.144531 185.402344 116.859375 185.398438 116.519531 C 185.398438 116.394531 185.414062 116.269531 185.433594 116.144531 C 186.746094 107.808594 191.230469 101.757812 198.652344 97.832031 C 198.941406 97.683594 199.234375 97.539062 199.542969 97.4375 C 199.816406 97.347656 200.09375 97.394531 200.234375 97.691406 C 200.378906 97.996094 200.289062 98.257812 200.007812 98.4375 C 199.886719 98.511719 199.75 98.566406 199.621094 98.628906 C 198.0625 99.355469 196.605469 100.238281 195.261719 101.308594 C 195.164062 101.382812 194.980469 101.414062 195.03125 101.640625 C 195.175781 101.621094 195.3125 101.601562 195.453125 101.582031 C 196.460938 101.453125 197.46875 101.5 198.472656 101.601562 C 198.527344 101.605469 198.582031 101.617188 198.632812 101.628906 C 198.996094 101.714844 199.300781 101.882812 199.246094 102.3125 C 199.1875 102.765625 198.839844 102.804688 198.46875 102.753906 C 196.96875 102.554688 195.484375 102.613281 194.015625 103 C 193.410156 103.160156 192.871094 103.390625 192.449219 103.882812 C 191.789062 104.652344 191.128906 105.414062 190.554688 106.246094 C 190.316406 106.589844 190.089844 106.9375 189.855469 107.277344 C 189.789062 107.378906 189.773438 107.492188 189.835938 107.582031 C 189.902344 107.671875 189.980469 107.589844 190.0625 107.550781 C 191.863281 106.746094 193.738281 106.296875 195.71875 106.332031 C 195.988281 106.335938 196.261719 106.3125 196.519531 106.40625 C 196.796875 106.511719 196.988281 106.699219 196.9375 107.019531 C 196.886719 107.304688 196.691406 107.453125 196.40625 107.472656 C 196.28125 107.480469 196.15625 107.46875 196.027344 107.464844 C 193.570312 107.417969 191.285156 108.023438 189.171875 109.277344 C 188.84375 109.472656 188.519531 109.699219 188.359375 110.050781 C 187.886719 111.078125 187.449219 112.125 187.207031 113.242188 C 187.15625 113.289062 187.140625 113.347656 187.195312 113.398438 Z M 188.855469 127.117188 C 189.214844 129.089844 191.074219 130.332031 193.113281 129.960938 C 195.085938 129.601562 196.3125 127.738281 195.933594 125.675781 C 195.582031 123.765625 193.710938 122.519531 191.734375 122.875 C 189.738281 123.234375 188.484375 125.082031 188.855469 127.117188 Z M 192.015625 123.957031 C 193.398438 123.75 194.667969 124.679688 194.867188 126.046875 C 195.070312 127.425781 194.132812 128.691406 192.761719 128.890625 C 191.382812 129.09375 190.132812 128.152344 189.933594 126.765625 C 189.738281 125.417969 190.667969 124.160156 192.015625 123.957031 Z M 183.359375 122.304688 C 183.632812 124.042969 185.199219 125.191406 186.914062 124.914062 C 188.625 124.632812 189.777344 123.042969 189.503906 121.332031 C 189.234375 119.667969 187.65625 118.488281 186.023438 118.734375 C 184.25 119.003906 183.082031 120.566406 183.359375 122.304688 Z M 186.152344 119.867188 C 187.253906 119.722656 188.265625 120.476562 188.40625 121.550781 C 188.550781 122.628906 187.761719 123.679688 186.710938 123.8125 C 185.625 123.945312 184.605469 123.175781 184.460938 122.101562 C 184.3125 120.996094 185.054688 120.015625 186.152344 119.867188 Z M 182.457031 129.171875 C 182.699219 130.828125 184.261719 131.972656 185.941406 131.722656 C 187.574219 131.476562 188.722656 129.925781 188.496094 128.28125 C 188.265625 126.589844 186.714844 125.445312 185 125.699219 C 183.3125 125.945312 182.210938 127.453125 182.457031 129.171875 Z M 183.570312 128.992188 C 183.40625 127.941406 184.109375 126.96875 185.160156 126.796875 C 186.21875 126.628906 187.234375 127.378906 187.386719 128.4375 C 187.53125 129.46875 186.789062 130.460938 185.746094 130.625 C 184.71875 130.785156 183.734375 130.050781 183.570312 128.992188 Z M 183.570312 128.992188 " fill-opacity="1" fill-rule="nonzero"/><path fill="#ffffff" d="M 211.019531 187.609375 C 211.296875 187.554688 211.765625 187.484375 212.214844 187.363281 C 213.835938 186.929688 214.570312 185.804688 214.425781 184.019531 C 214.316406 182.675781 213.90625 181.402344 213.523438 180.128906 C 212.605469 177.0625 211.992188 173.929688 211.453125 170.78125 C 210.65625 166.105469 209.761719 161.441406 208.347656 156.90625 C 205.5 147.789062 201.417969 139.289062 195.476562 131.75 C 195.433594 131.691406 195.386719 131.640625 195.339844 131.582031 C 195.109375 131.285156 194.800781 131.179688 194.488281 131.398438 C 194.160156 131.632812 194.21875 131.957031 194.4375 132.253906 C 194.898438 132.878906 195.363281 133.496094 195.828125 134.117188 C 196.179688 134.59375 196.523438 135.082031 196.886719 135.550781 C 197.035156 135.738281 197.011719 135.84375 196.816406 135.976562 C 196.09375 136.46875 195.289062 136.777344 194.46875 137.0625 C 194.195312 137.15625 194.125 136.957031 194.023438 136.796875 C 193.015625 135.167969 191.863281 133.652344 190.679688 132.152344 C 190.222656 131.570312 189.878906 131.421875 189.585938 131.714844 C 189.148438 132.152344 189.496094 132.5 189.769531 132.835938 C 193.722656 137.65625 196.410156 143.179688 198.675781 148.933594 C 200.96875 154.742188 202.382812 160.761719 203.003906 166.972656 C 203.34375 170.371094 203.34375 173.777344 203.320312 177.183594 C 203.304688 179.273438 203.128906 181.363281 203.25 183.453125 C 203.433594 186.683594 204.460938 187.695312 207.703125 187.78125 C 208.75 187.8125 209.796875 187.765625 211.019531 187.609375 Z M 204.414062 183.878906 C 204.394531 183.582031 204.34375 183.167969 204.351562 182.753906 C 204.382812 180.109375 204.4375 177.460938 204.460938 174.8125 C 204.464844 174.472656 204.5625 174.433594 204.863281 174.476562 C 206.75 174.757812 208.570312 174.488281 210.3125 173.746094 C 210.753906 173.558594 210.832031 173.652344 210.910156 174.078125 C 211.359375 176.488281 211.949219 178.863281 212.660156 181.214844 C 212.988281 182.316406 213.359375 183.417969 213.292969 184.601562 C 213.238281 185.507812 212.914062 185.960938 212.054688 186.214844 C 210.386719 186.703125 208.671875 186.714844 206.960938 186.589844 C 205.214844 186.460938 204.699219 185.933594 204.460938 184.210938 C 204.449219 184.140625 204.441406 184.066406 204.414062 183.878906 Z M 203.792969 164.5 C 203.625 163.320312 203.476562 162.136719 203.277344 160.964844 C 203.210938 160.566406 203.28125 160.46875 203.679688 160.503906 C 205.046875 160.628906 206.378906 160.445312 207.664062 159.964844 C 207.964844 159.855469 208.035156 159.941406 208.09375 160.203125 C 208.273438 160.976562 208.484375 161.742188 208.65625 162.515625 C 209.355469 165.667969 210.027344 168.824219 210.523438 172.019531 C 210.5625 172.269531 210.519531 172.417969 210.277344 172.53125 C 208.53125 173.34375 206.710938 173.640625 204.800781 173.328125 C 204.542969 173.285156 204.445312 173.179688 204.445312 172.902344 C 204.449219 170.085938 204.203125 167.28125 203.792969 164.5 Z M 205.65625 159.316406 C 204.902344 159.449219 204.152344 159.410156 203.394531 159.351562 C 203.0625 159.324219 202.933594 159.191406 202.863281 158.878906 C 202.15625 155.5625 201.207031 152.316406 199.972656 149.15625 C 199.824219 148.777344 199.945312 148.699219 200.285156 148.648438 C 201.3125 148.496094 202.28125 148.160156 203.164062 147.621094 C 203.488281 147.421875 203.609375 147.480469 203.738281 147.804688 C 204.222656 149.007812 204.742188 150.195312 205.210938 151.402344 C 206.101562 153.679688 206.914062 155.988281 207.597656 158.34375 C 207.691406 158.65625 207.640625 158.78125 207.324219 158.886719 C 206.777344 159.070312 206.230469 159.246094 205.65625 159.316406 Z M 194.839844 138.144531 C 195.734375 137.832031 196.597656 137.515625 197.351562 136.980469 C 197.644531 136.773438 197.777344 136.8125 197.96875 137.113281 C 199.777344 139.976562 201.425781 142.921875 202.894531 145.976562 C 203.039062 146.277344 202.980469 146.414062 202.714844 146.570312 C 201.851562 147.078125 200.929688 147.40625 199.9375 147.570312 C 199.53125 147.636719 199.347656 147.5625 199.179688 147.15625 C 198.648438 145.839844 198.070312 144.539062 197.484375 143.246094 C 196.699219 141.507812 195.773438 139.84375 194.839844 138.144531 Z M 164.496094 132.246094 C 163.046875 133.648438 161.800781 135.210938 160.734375 136.914062 C 160.492188 137.300781 160.4375 137.714844 160.492188 138.160156 C 160.675781 139.59375 161.417969 140.800781 162.074219 142.039062 C 162.132812 142.152344 162.226562 142.246094 162.273438 142.359375 C 162.402344 142.648438 162.515625 142.96875 162.1875 143.1875 C 161.882812 143.390625 161.589844 143.261719 161.378906 142.996094 C 161.210938 142.785156 161.058594 142.5625 160.925781 142.328125 C 160.375 141.363281 159.921875 140.351562 159.527344 139.296875 C 159.308594 139.40625 159.289062 139.597656 159.21875 139.753906 C 158.777344 140.703125 158.464844 141.703125 158.089844 142.679688 C 157.699219 143.691406 157.882812 144.578125 158.425781 145.449219 C 158.730469 145.9375 159.042969 146.421875 159.332031 146.917969 C 159.476562 147.167969 159.519531 147.460938 159.261719 147.65625 C 159 147.855469 158.710938 147.800781 158.472656 147.574219 C 158.203125 147.324219 158.046875 146.996094 157.84375 146.703125 C 157.695312 146.492188 157.625 146.226562 157.363281 146.042969 C 157.207031 146.796875 157.15625 147.511719 157.121094 148.230469 C 157.09375 148.769531 157.109375 149.3125 157.089844 149.851562 C 157.078125 150.238281 156.980469 150.605469 156.5 150.601562 C 156.058594 150.59375 155.957031 150.253906 155.9375 149.878906 C 155.9375 149.808594 155.9375 149.734375 155.9375 149.664062 C 155.945312 144.832031 157.183594 140.335938 159.804688 136.28125 C 164.34375 129.246094 170.734375 125.179688 179.15625 124.496094 C 179.980469 124.429688 180.8125 124.472656 181.644531 124.488281 C 182.03125 124.496094 182.398438 124.628906 182.371094 125.105469 C 182.34375 125.585938 181.964844 125.632812 181.574219 125.621094 C 181.414062 125.613281 181.25 125.605469 181.089844 125.601562 C 180.222656 125.585938 179.359375 125.625 178.492188 125.667969 C 177.839844 125.703125 177.527344 126.042969 177.320312 126.585938 C 177.019531 127.378906 176.757812 128.183594 176.578125 129.011719 C 176.535156 129.203125 176.484375 129.398438 176.40625 129.578125 C 176.296875 129.816406 176.082031 129.921875 175.824219 129.871094 C 175.59375 129.820312 175.460938 129.660156 175.421875 129.417969 C 175.378906 129.160156 175.425781 128.914062 175.480469 128.667969 C 175.640625 127.929688 175.886719 127.214844 176.128906 126.496094 C 176.164062 126.390625 176.285156 126.195312 176.207031 126.097656 C 176.125 125.996094 175.878906 126.074219 175.753906 126.113281 C 174.578125 126.46875 174.78125 126.335938 173.152344 126.847656 C 172.550781 127.039062 172.1875 127.421875 171.914062 127.960938 C 171.347656 129.078125 171.324219 130.289062 171.257812 131.492188 C 171.207031 132.464844 171.203125 133.4375 171.273438 134.410156 C 171.296875 134.722656 171.234375 135.003906 170.878906 135.078125 C 170.496094 135.15625 170.320312 134.910156 170.210938 134.59375 C 170.152344 134.433594 170.136719 134.304688 170.132812 134.28125 C 170.042969 133.398438 170 130.054688 170.324219 128.898438 C 170.457031 128.421875 170.503906 128.304688 170.503906 128.304688 C 170.597656 128.074219 170.691406 127.914062 170.652344 127.878906 C 170.628906 127.859375 170.570312 127.902344 170.375 128.019531 C 170.289062 128.074219 170.195312 128.125 170.109375 128.179688 C 169.761719 128.402344 168.222656 129.246094 167.203125 129.960938 C 166.800781 130.242188 166.535156 130.605469 166.351562 131.046875 C 165.84375 132.257812 165.75 133.523438 165.824219 134.8125 C 165.898438 136.09375 166.023438 137.367188 166.277344 138.628906 C 166.332031 138.917969 166.300781 139.179688 165.976562 139.292969 C 165.648438 139.410156 165.417969 139.261719 165.273438 138.96875 C 165.203125 138.824219 165.144531 138.667969 165.113281 138.511719 C 164.777344 136.714844 164.609375 134.90625 164.699219 133.074219 C 164.71875 132.742188 164.773438 132.414062 164.8125 132.078125 C 164.632812 132.078125 164.570312 132.175781 164.496094 132.246094 Z M 202.222656 117.070312 C 202.613281 117.519531 202.976562 117.992188 203.25 118.523438 C 203.386719 118.796875 203.351562 119.0625 203.09375 119.246094 C 202.828125 119.433594 202.570312 119.351562 202.363281 119.132812 C 202.207031 118.960938 202.074219 118.765625 201.9375 118.574219 C 201.015625 117.277344 199.871094 116.226562 198.488281 115.433594 C 198.089844 115.207031 197.746094 115.214844 197.339844 115.46875 C 195.34375 116.71875 193.507812 118.160156 191.886719 119.871094 C 191.789062 119.976562 191.695312 120.097656 191.574219 120.167969 C 191.328125 120.320312 191.0625 120.367188 190.835938 120.132812 C 190.613281 119.902344 190.628906 119.644531 190.808594 119.398438 C 190.925781 119.238281 191.058594 119.089844 191.199219 118.949219 C 195.183594 114.824219 200.019531 112.191406 205.601562 110.996094 C 213.027344 109.398438 220.113281 110.4375 226.796875 114.078125 C 228.066406 114.769531 229.265625 115.574219 230.40625 116.460938 C 230.890625 116.835938 230.9375 117.351562 230.519531 117.558594 C 230.214844 117.710938 229.96875 117.5625 229.726562 117.378906 C 228.742188 116.621094 227.714844 115.914062 226.628906 115.304688 C 226.4375 115.195312 226.269531 115.003906 225.976562 115.035156 C 226.226562 115.804688 226.335938 116.570312 226.324219 117.347656 C 226.320312 117.746094 226.242188 118.160156 225.726562 118.140625 C 225.257812 118.125 225.175781 117.75 225.183594 117.355469 C 225.199219 116.847656 225.144531 116.34375 225.019531 115.855469 C 224.746094 114.78125 224.277344 113.929688 223.09375 113.539062 C 221.691406 113.082031 220.3125 112.550781 218.871094 112.21875 C 218.039062 112.027344 217.203125 111.835938 216.265625 111.746094 C 216.367188 111.933594 216.429688 112.054688 216.5 112.171875 C 217.058594 113.117188 217.574219 114.085938 217.976562 115.109375 C 218.226562 115.746094 218.433594 116.402344 218.550781 117.078125 C 218.601562 117.386719 218.472656 117.617188 218.167969 117.707031 C 217.859375 117.796875 217.644531 117.636719 217.503906 117.375 C 217.449219 117.265625 217.425781 117.136719 217.394531 117.015625 C 216.90625 115.183594 216.078125 113.515625 214.972656 111.980469 C 214.746094 111.667969 214.484375 111.511719 214.082031 111.488281 C 213.109375 111.425781 212.136719 111.40625 211.164062 111.4375 C 209.800781 111.472656 208.445312 111.621094 207.105469 111.867188 C 207.113281 112.058594 207.246094 112.105469 207.328125 112.195312 C 208.707031 113.707031 209.90625 115.34375 210.632812 117.28125 C 210.695312 117.449219 210.746094 117.621094 210.777344 117.796875 C 210.824219 118.101562 210.726562 118.34375 210.417969 118.441406 C 210.109375 118.535156 209.890625 118.378906 209.753906 118.113281 C 209.652344 117.921875 209.589844 117.714844 209.503906 117.515625 C 208.710938 115.628906 207.542969 114.003906 206.078125 112.582031 C 205.726562 112.242188 205.375 112.160156 204.910156 112.300781 C 203.894531 112.605469 202.867188 112.886719 201.878906 113.273438 C 200.980469 113.625 200.085938 113.980469 199.191406 114.488281 C 200.359375 115.230469 201.355469 116.078125 202.222656 117.070312 Z M 154.609375 117.339844 C 153.21875 117.945312 151.917969 118.710938 150.6875 119.601562 C 150.085938 120.042969 149.753906 120.089844 149.515625 119.769531 C 149.273438 119.4375 149.417969 119.121094 150.011719 118.6875 C 154.90625 115.125 160.394531 113.914062 166.339844 114.648438 C 171.867188 115.332031 176.773438 117.597656 181.339844 120.6875 C 181.429688 120.75 181.515625 120.816406 181.582031 120.898438 C 181.761719 121.113281 181.808594 121.351562 181.644531 121.59375 C 181.488281 121.820312 181.25 121.859375 181.015625 121.785156 C 180.832031 121.726562 180.664062 121.605469 180.503906 121.496094 C 179.351562 120.714844 178.160156 120 176.9375 119.339844 C 176.660156 119.191406 176.378906 119.113281 176.0625 119.128906 C 174.214844 119.21875 172.59375 119.898438 171.164062 121.039062 C 170.585938 121.496094 170.0625 122.023438 169.511719 122.515625 C 169.242188 122.761719 168.945312 122.867188 168.652344 122.578125 C 168.359375 122.289062 168.460938 121.972656 168.714844 121.71875 C 170.109375 120.316406 171.597656 119.046875 173.546875 118.464844 C 173.828125 118.382812 174.101562 118.285156 174.488281 118.15625 C 173.523438 117.722656 172.640625 117.425781 171.777344 117.082031 C 171.136719 116.828125 170.546875 116.875 169.9375 117.097656 C 169.414062 117.285156 168.90625 117.515625 168.414062 117.78125 C 166.636719 118.730469 165.175781 120.046875 163.855469 121.550781 C 163.609375 121.828125 163.296875 122.015625 162.964844 121.738281 C 162.609375 121.441406 162.746094 121.089844 163.015625 120.792969 C 164.015625 119.679688 165.050781 118.601562 166.300781 117.753906 C 167.085938 117.222656 167.898438 116.75 168.824219 116.273438 C 167.574219 115.957031 166.402344 115.796875 165.222656 115.6875 C 165.109375 115.675781 164.980469 115.742188 164.867188 115.785156 C 163.082031 116.46875 161.554688 117.511719 160.308594 118.96875 C 159.753906 119.617188 159.300781 120.332031 158.835938 121.039062 C 158.625 121.359375 158.351562 121.636719 157.945312 121.382812 C 157.535156 121.128906 157.679688 120.761719 157.875 120.4375 C 158.996094 118.574219 160.363281 116.941406 162.257812 115.8125 C 162.3125 115.78125 162.390625 115.746094 162.363281 115.613281 C 161.308594 115.613281 160.265625 115.800781 159.21875 115.929688 C 158.3125 116.042969 157.59375 116.472656 156.9375 117.0625 C 156.375 117.574219 155.878906 118.144531 155.460938 118.78125 C 154.914062 119.613281 154.480469 120.503906 154.050781 121.398438 C 153.886719 121.742188 153.652344 122 153.25 121.824219 C 152.851562 121.644531 152.867188 121.273438 153.019531 120.9375 C 153.546875 119.789062 154.105469 118.660156 154.867188 117.640625 C 154.96875 117.507812 155.152344 117.410156 155.117188 117.1875 C 154.921875 117.164062 154.769531 117.269531 154.609375 117.339844 Z M 203.03125 130.488281 C 203.003906 131.226562 202.8125 131.515625 202.402344 131.503906 C 201.988281 131.492188 201.847656 131.191406 201.886719 130.441406 C 201.976562 128.625 201.753906 126.855469 200.816406 125.273438 C 199.855469 123.648438 200.214844 123.808594 198.410156 124.246094 C 198.253906 124.285156 198.097656 124.332031 197.941406 124.375 C 197.582031 124.484375 197.238281 124.496094 197.09375 124.066406 C 196.949219 123.644531 197.226562 123.425781 197.574219 123.296875 C 198.390625 122.996094 199.246094 122.8125 200.105469 122.742188 C 202.109375 122.570312 204.101562 122.738281 206.054688 123.226562 C 212.882812 124.925781 218.542969 128.539062 223.210938 133.75 C 224.964844 135.707031 226.367188 137.902344 227.324219 140.363281 C 227.472656 140.75 227.582031 141.152344 227.089844 141.378906 C 226.726562 141.550781 226.433594 141.339844 226.242188 140.804688 C 225.578125 138.933594 224.546875 137.269531 223.347656 135.707031 C 223.265625 135.601562 223.214844 135.441406 223.023438 135.433594 C 223.011719 135.632812 223.011719 135.832031 222.996094 136.027344 C 222.929688 136.878906 222.710938 137.691406 222.363281 138.472656 C 222.210938 138.804688 221.949219 139.011719 221.585938 138.871094 C 221.207031 138.722656 221.21875 138.378906 221.320312 138.042969 C 221.347656 137.957031 221.382812 137.871094 221.417969 137.789062 C 221.863281 136.671875 221.972656 135.527344 221.765625 134.339844 C 221.691406 133.914062 221.539062 133.5625 221.230469 133.253906 C 219.878906 131.890625 218.429688 130.652344 216.878906 129.527344 C 216.785156 129.460938 216.699219 129.332031 216.480469 129.441406 C 216.539062 129.839844 216.609375 130.261719 216.65625 130.6875 C 216.769531 131.746094 216.554688 132.765625 216.226562 133.765625 C 216.113281 134.101562 215.867188 134.28125 215.515625 134.179688 C 215.160156 134.074219 215.074219 133.789062 215.152344 133.445312 C 215.183594 133.304688 215.210938 133.164062 215.257812 133.027344 C 215.636719 131.859375 215.625 130.679688 215.355469 129.5 C 215.226562 128.933594 215.136719 128.324219 214.546875 127.976562 C 212.960938 127.042969 211.332031 126.195312 209.617188 125.523438 C 209.496094 125.480469 209.371094 125.359375 209.191406 125.496094 C 209.652344 126.539062 209.828125 127.65625 209.925781 128.789062 C 210 129.671875 209.957031 130.550781 209.765625 131.421875 C 209.683594 131.800781 209.492188 132.085938 209.070312 132.007812 C 208.640625 131.925781 208.605469 131.566406 208.652344 131.195312 C 208.660156 131.144531 208.679688 131.09375 208.6875 131.039062 C 208.925781 129.554688 208.832031 128.09375 208.402344 126.652344 C 208.035156 125.417969 207.414062 124.554688 205.980469 124.34375 C 204.453125 124.117188 202.941406 123.800781 201.320312 123.828125 C 202.945312 126.421875 203.097656 128.566406 203.03125 130.488281 Z M 175.503906 146.136719 C 176.558594 147.621094 177.679688 148.859375 178.863281 150.042969 C 179.128906 150.3125 179.398438 150.582031 179.734375 150.769531 C 180.023438 150.929688 180.332031 151.003906 180.554688 150.691406 C 180.773438 150.390625 180.636719 150.105469 180.378906 149.886719 C 179.386719 149.042969 178.53125 148.066406 177.679688 147.085938 C 177.015625 146.324219 176.414062 145.519531 176.027344 144.570312 C 175.875 144.191406 175.808594 143.824219 175.90625 143.414062 C 176.171875 142.277344 176.464844 141.144531 176.894531 140.042969 C 177.121094 140.105469 177.136719 140.308594 177.222656 140.449219 C 178.140625 142.007812 179.253906 143.421875 180.484375 144.742188 C 180.695312 144.964844 180.925781 145.171875 181.207031 145.300781 C 181.472656 145.417969 181.742188 145.445312 181.9375 145.175781 C 182.144531 144.886719 182.058594 144.609375 181.8125 144.40625 C 180.75 143.519531 179.957031 142.398438 179.140625 141.304688 C 178.566406 140.539062 178.039062 139.742188 177.738281 138.820312 C 177.664062 138.59375 177.597656 138.359375 177.699219 138.132812 C 178.242188 136.957031 178.878906 135.835938 179.703125 134.679688 C 180.140625 136.328125 181.121094 137.546875 182.054688 138.792969 C 182.300781 139.125 182.582031 139.433594 182.875 139.722656 C 183.152344 139.996094 183.511719 140.148438 183.828125 139.824219 C 184.152344 139.496094 183.910156 139.195312 183.664062 138.933594 C 182.914062 138.125 182.292969 137.21875 181.675781 136.308594 C 181.394531 135.890625 181.179688 135.433594 180.988281 134.964844 C 180.609375 134.027344 180.53125 133.152344 181.433594 132.433594 C 181.570312 132.324219 181.675781 132.164062 181.777344 132.015625 C 181.945312 131.765625 181.964844 131.503906 181.738281 131.28125 C 181.488281 131.035156 181.210938 131.09375 180.957031 131.28125 C 180.855469 131.355469 180.777344 131.457031 180.691406 131.554688 C 176.320312 136.582031 174.125 142.40625 174.277344 149.09375 C 174.355469 152.46875 175.105469 155.699219 176.363281 158.820312 C 176.382812 158.871094 176.410156 158.917969 176.429688 158.96875 C 176.59375 159.355469 176.796875 159.742188 177.296875 159.53125 C 177.773438 159.328125 177.640625 158.902344 177.496094 158.546875 C 176.910156 157.148438 176.453125 155.707031 176.09375 154.238281 C 176.070312 154.144531 176.042969 154.035156 176.003906 153.839844 C 175.953125 153.574219 175.949219 153.515625 175.96875 153.503906 C 176 153.492188 176.050781 153.589844 176.175781 153.734375 C 176.265625 153.835938 176.324219 153.882812 176.449219 154.007812 C 176.871094 154.425781 177.28125 154.859375 177.78125 155.191406 C 177.957031 155.308594 178.15625 155.40625 178.355469 155.480469 C 178.636719 155.585938 178.910156 155.550781 179.058594 155.265625 C 179.21875 154.964844 179.117188 154.691406 178.832031 154.523438 C 177.949219 154 177.300781 153.21875 176.609375 152.484375 C 175.777344 151.601562 175.375 150.59375 175.40625 149.355469 C 175.433594 148.335938 175.398438 147.316406 175.503906 146.136719 Z M 187.195312 113.398438 C 187.207031 113.410156 187.265625 113.367188 187.304688 113.351562 C 187.644531 113.148438 187.984375 112.949219 188.320312 112.746094 C 189.578125 111.984375 190.972656 111.640625 192.402344 111.40625 C 192.761719 111.34375 193.082031 111.414062 193.15625 111.820312 C 193.238281 112.253906 192.949219 112.429688 192.574219 112.511719 C 192.449219 112.535156 192.324219 112.554688 192.203125 112.578125 C 190.714844 112.855469 189.320312 113.359375 188.074219 114.242188 C 187.25 114.824219 186.476562 115.421875 186.515625 116.589844 C 186.527344 116.953125 186.289062 117.210938 185.890625 117.175781 C 185.507812 117.144531 185.402344 116.859375 185.398438 116.519531 C 185.398438 116.394531 185.414062 116.269531 185.433594 116.144531 C 186.746094 107.808594 191.230469 101.757812 198.652344 97.832031 C 198.941406 97.683594 199.234375 97.539062 199.542969 97.4375 C 199.816406 97.347656 200.09375 97.394531 200.234375 97.691406 C 200.378906 97.996094 200.289062 98.257812 200.007812 98.4375 C 199.886719 98.511719 199.75 98.566406 199.621094 98.628906 C 198.0625 99.355469 196.605469 100.238281 195.261719 101.308594 C 195.164062 101.382812 194.980469 101.414062 195.03125 101.640625 C 195.175781 101.621094 195.3125 101.601562 195.453125 101.582031 C 196.460938 101.453125 197.46875 101.5 198.472656 101.601562 C 198.527344 101.605469 198.582031 101.617188 198.632812 101.628906 C 198.996094 101.714844 199.300781 101.882812 199.246094 102.3125 C 199.1875 102.765625 198.839844 102.804688 198.46875 102.753906 C 196.96875 102.554688 195.484375 102.613281 194.015625 103 C 193.410156 103.160156 192.871094 103.390625 192.449219 103.882812 C 191.789062 104.652344 191.128906 105.414062 190.554688 106.246094 C 190.316406 106.589844 190.089844 106.9375 189.855469 107.277344 C 189.789062 107.378906 189.773438 107.492188 189.835938 107.582031 C 189.902344 107.671875 189.980469 107.589844 190.0625 107.550781 C 191.863281 106.746094 193.738281 106.296875 195.71875 106.332031 C 195.988281 106.335938 196.261719 106.3125 196.519531 106.40625 C 196.796875 106.511719 196.988281 106.699219 196.9375 107.019531 C 196.886719 107.304688 196.691406 107.453125 196.40625 107.472656 C 196.28125 107.480469 196.15625 107.46875 196.027344 107.464844 C 193.570312 107.417969 191.285156 108.023438 189.171875 109.277344 C 188.84375 109.472656 188.519531 109.699219 188.359375 110.050781 C 187.886719 111.078125 187.449219 112.125 187.207031 113.242188 C 187.15625 113.289062 187.140625 113.347656 187.195312 113.398438 Z M 188.855469 127.117188 C 189.214844 129.089844 191.074219 130.332031 193.113281 129.960938 C 195.085938 129.601562 196.3125 127.738281 195.933594 125.675781 C 195.582031 123.765625 193.710938 122.519531 191.734375 122.875 C 189.738281 123.234375 188.484375 125.082031 188.855469 127.117188 Z M 192.015625 123.957031 C 193.398438 123.75 194.667969 124.679688 194.867188 126.046875 C 195.070312 127.425781 194.132812 128.691406 192.761719 128.890625 C 191.382812 129.09375 190.132812 128.152344 189.933594 126.765625 C 189.738281 125.417969 190.667969 124.160156 192.015625 123.957031 Z M 183.359375 122.304688 C 183.632812 124.042969 185.199219 125.191406 186.914062 124.914062 C 188.625 124.632812 189.777344 123.042969 189.503906 121.332031 C 189.234375 119.667969 187.65625 118.488281 186.023438 118.734375 C 184.25 119.003906 183.082031 120.566406 183.359375 122.304688 Z M 186.152344 119.867188 C 187.253906 119.722656 188.265625 120.476562 188.40625 121.550781 C 188.550781 122.628906 187.761719 123.679688 186.710938 123.8125 C 185.625 123.945312 184.605469 123.175781 184.460938 122.101562 C 184.3125 120.996094 185.054688 120.015625 186.152344 119.867188 Z M 182.457031 129.171875 C 182.699219 130.828125 184.261719 131.972656 185.941406 131.722656 C 187.574219 131.476562 188.722656 129.925781 188.496094 128.28125 C 188.265625 126.589844 186.714844 125.445312 185 125.699219 C 183.3125 125.945312 182.210938 127.453125 182.457031 129.171875 Z M 183.570312 128.992188 C 183.40625 127.941406 184.109375 126.96875 185.160156 126.796875 C 186.21875 126.628906 187.234375 127.378906 187.386719 128.4375 C 187.53125 129.46875 186.789062 130.460938 185.746094 130.625 C 184.71875 130.785156 183.734375 130.050781 183.570312 128.992188 Z M 183.570312 128.992188 " fill-opacity="1" fill-rule="nonzero"/></g></g></g><g clip-path="url(#eb92365e13)"><path fill="#ffffff" d="M 69.546875 108.058594 C 68.761719 111.449219 69.894531 114.84375 72.230469 117.105469 C 72.402344 116.746094 72.582031 116.394531 72.773438 116.046875 C 70.878906 114.054688 69.988281 111.183594 70.648438 108.3125 C 71.695312 103.773438 76.242188 100.933594 80.78125 101.980469 C 85.320312 103.027344 88.15625 107.574219 87.109375 112.109375 C 86.058594 116.644531 81.519531 119.488281 76.980469 118.441406 C 75.949219 118.203125 75.003906 117.785156 74.175781 117.226562 C 74 117.566406 73.835938 117.90625 73.679688 118.257812 C 74.585938 118.847656 75.609375 119.289062 76.726562 119.546875 C 81.871094 120.734375 87.023438 117.515625 88.214844 112.367188 C 89.402344 107.222656 86.179688 102.0625 81.035156 100.878906 C 75.890625 99.691406 70.734375 102.910156 69.546875 108.058594 Z M 69.546875 108.058594 " fill-opacity="1" fill-rule="nonzero"/></g><g clip-path="url(#a7c3b40ab2)"><path fill="#ffffff" d="M 72.230469 117.105469 C 71.546875 118.523438 71.019531 120.019531 70.664062 121.566406 C 68.484375 130.996094 72.894531 140.429688 80.867188 145.042969 C 80.914062 145.097656 80.96875 145.148438 81.03125 145.195312 C 82.929688 146.539062 83.628906 147.710938 83.363281 149.121094 L 75.4375 183.4375 C 72.839844 185.082031 68.21875 185.863281 61.6875 185.765625 C 61.226562 185.761719 60.832031 186.105469 60.773438 186.5625 C 60.71875 187.023438 61.019531 187.453125 61.472656 187.554688 L 91.929688 194.585938 C 92.378906 194.6875 92.839844 194.433594 92.992188 194 C 93.140625 193.558594 92.933594 193.078125 92.515625 192.882812 C 86.457031 190.058594 82.640625 187.335938 81.171875 184.777344 L 89.101562 150.445312 C 89.101562 150.445312 89.109375 150.417969 89.109375 150.40625 C 89.511719 149.023438 90.679688 148.28125 93.035156 147.921875 C 93.105469 147.910156 93.167969 147.890625 93.234375 147.863281 C 93.234375 147.863281 93.234375 147.863281 93.238281 147.863281 C 102.378906 147.171875 110.425781 140.636719 112.59375 131.246094 C 113.691406 126.484375 113.128906 121.4375 111 117.046875 C 110.78125 116.59375 110.238281 116.40625 109.789062 116.625 C 109.335938 116.84375 109.148438 117.386719 109.367188 117.835938 C 111.277344 121.789062 111.8125 126.125 110.921875 130.410156 C 110.890625 130.554688 110.859375 130.699219 110.824219 130.84375 C 110.769531 131.085938 110.707031 131.324219 110.640625 131.5625 C 107.917969 141.660156 97.675781 147.917969 87.398438 145.660156 C 87.3125 145.640625 87.226562 145.621094 87.136719 145.601562 C 76.578125 143.132812 69.980469 132.550781 72.421875 121.980469 C 72.449219 121.847656 72.480469 121.722656 72.511719 121.59375 C 72.625 121.152344 72.746094 120.714844 72.886719 120.285156 C 73.109375 119.59375 73.375 118.917969 73.667969 118.265625 C 73.824219 117.914062 73.988281 117.574219 74.164062 117.234375 C 75.433594 114.804688 77.210938 112.671875 79.421875 110.929688 C 79.816406 110.621094 79.882812 110.050781 79.574219 109.65625 C 79.265625 109.261719 78.695312 109.195312 78.300781 109.503906 C 76.023438 111.292969 74.144531 113.535156 72.757812 116.050781 C 72.566406 116.398438 72.386719 116.753906 72.214844 117.109375 Z M 85.6875 191.285156 L 68.457031 187.308594 C 72.140625 186.902344 74.882812 186.046875 76.765625 184.734375 C 76.949219 184.605469 77.078125 184.414062 77.132812 184.195312 L 85.144531 149.480469 C 85.335938 148.488281 85.210938 147.621094 84.902344 146.867188 C 85.347656 147.003906 85.828125 147.136719 86.347656 147.265625 C 86.472656 147.300781 86.605469 147.332031 86.738281 147.363281 C 86.828125 147.382812 86.914062 147.402344 87.003906 147.421875 C 87.113281 147.445312 87.226562 147.46875 87.335938 147.492188 C 87.824219 147.59375 88.285156 147.675781 88.722656 147.742188 C 88.144531 148.253906 87.671875 148.929688 87.402344 149.824219 C 87.378906 149.867188 87.371094 149.910156 87.359375 149.957031 L 79.335938 184.707031 C 79.289062 184.914062 79.316406 185.128906 79.414062 185.320312 C 80.429688 187.308594 82.496094 189.277344 85.691406 191.285156 Z M 85.6875 191.285156 " fill-opacity="1" fill-rule="nonzero"/></g><path fill="#ffffff" d="M 72.898438 120.273438 C 72.757812 120.703125 72.632812 121.144531 72.523438 121.582031 C 74.984375 124.402344 78.332031 126.40625 81.980469 127.246094 C 82.429688 127.347656 82.890625 127.4375 83.351562 127.503906 C 85.875 127.875 88.4375 127.699219 90.917969 127.523438 C 92.269531 127.429688 93.667969 127.335938 95.03125 127.328125 C 100.527344 127.308594 105.914062 128.765625 110.644531 131.550781 C 110.710938 131.316406 110.773438 131.074219 110.828125 130.832031 C 110.863281 130.6875 110.894531 130.542969 110.925781 130.398438 C 106.089844 127.625 100.613281 126.175781 95.027344 126.191406 C 93.625 126.199219 92.207031 126.292969 90.839844 126.390625 C 88.421875 126.558594 85.917969 126.734375 83.515625 126.382812 C 79.363281 125.769531 75.511719 123.546875 72.898438 120.265625 Z M 72.898438 120.273438 " fill-opacity="1" fill-rule="nonzero"/><path fill="#ffffff" d="M 139.964844 168.160156 L 139.976562 168.761719 C 139.859375 168.453125 139.707031 168.160156 139.53125 167.886719 C 139.671875 167.988281 139.816406 168.078125 139.964844 168.160156 Z M 139.964844 168.160156 " fill-opacity="1" fill-rule="nonzero"/><path fill="#ffffff" d="M 140.1875 174.160156 L 140.207031 177.085938 L 138.894531 177.503906 L 138.894531 177.023438 C 139.628906 176.238281 140.082031 175.238281 140.179688 174.164062 L 140.1875 174.164062 Z M 140.1875 174.160156 " fill-opacity="1" fill-rule="nonzero"/><path fill="#ffffff" d="M 143.5625 168.613281 L 143.703125 175.976562 L 142.390625 176.394531 L 142.246094 168.773438 C 142.472656 168.777344 142.695312 168.765625 142.917969 168.738281 C 143.136719 168.710938 143.347656 168.671875 143.5625 168.613281 Z M 143.5625 168.613281 " fill-opacity="1" fill-rule="nonzero"/><path fill="#ffffff" d="M 139.628906 150.527344 L 139.753906 157.050781 C 139.265625 157.253906 138.832031 157.527344 138.449219 157.863281 L 138.304688 150.289062 C 138.742188 150.375 139.1875 150.453125 139.628906 150.527344 Z M 139.628906 150.527344 " fill-opacity="1" fill-rule="nonzero"/><path fill="#ffffff" d="M 143.226562 150.933594 L 143.324219 155.992188 L 142.011719 156.367188 L 141.910156 150.839844 C 142.347656 150.882812 142.789062 150.914062 143.230469 150.933594 Z M 143.226562 150.933594 " fill-opacity="1" fill-rule="nonzero"/><path fill="#ffffff" d="M 139.242188 130.132812 L 139.605469 149.1875 C 139.164062 149.109375 138.722656 149.027344 138.28125 148.9375 L 137.929688 130.296875 Z M 139.242188 130.132812 " fill-opacity="1" fill-rule="nonzero"/><path fill="#ffffff" d="M 141.515625 129.855469 L 142.832031 129.691406 L 143.207031 149.613281 C 142.765625 149.59375 142.328125 149.558594 141.886719 149.511719 Z M 141.515625 129.855469 " fill-opacity="1" fill-rule="nonzero"/><path fill="#ffffff" d="M 142.476562 111.066406 L 142.785156 127.570312 L 141.472656 127.730469 L 141.171875 111.75 L 138.902344 111.789062 L 139.203125 128.011719 L 137.890625 128.171875 L 137.570312 111.15625 C 137.5625 110.789062 137.855469 110.492188 138.214844 110.484375 L 141.808594 110.414062 C 141.984375 110.414062 142.148438 110.480469 142.277344 110.597656 C 142.402344 110.722656 142.472656 110.886719 142.476562 111.0625 Z M 142.476562 111.066406 " fill-opacity="1" fill-rule="nonzero"/><path fill="#ffffff" d="M 122.972656 172.269531 L 122.941406 173.300781 C 122.90625 174.417969 123.246094 175.488281 123.90625 176.367188 L 122.976562 172.269531 Z M 122.972656 172.269531 " fill-opacity="1" fill-rule="nonzero"/><g clip-path="url(#6bc268fabf)"><path fill="#ffffff" d="M 153.789062 126.207031 L 154.71875 191.339844 L 125.96875 194.902344 L 111.519531 131.445312 Z M 151.980469 147.230469 L 151.714844 128.59375 L 114.089844 133.253906 L 118.003906 150.441406 C 119.722656 148.828125 122.128906 147.714844 124.828125 147.339844 C 128.222656 146.875 131.667969 147.515625 134.636719 148.15625 C 135.039062 148.242188 135.441406 148.332031 135.84375 148.417969 C 136.652344 148.59375 137.464844 148.777344 138.28125 148.941406 C 138.722656 149.035156 139.164062 149.117188 139.605469 149.191406 C 140.363281 149.324219 141.121094 149.433594 141.882812 149.511719 C 142.320312 149.558594 142.761719 149.59375 143.203125 149.613281 C 143.476562 149.628906 143.753906 149.636719 144.03125 149.636719 C 147.222656 149.65625 150.015625 148.808594 151.984375 147.230469 Z M 152.171875 161 L 152 148.84375 C 150.414062 149.882812 148.472656 150.558594 146.308594 150.824219 C 145.570312 150.917969 144.804688 150.960938 144.019531 150.957031 C 143.753906 150.957031 143.488281 150.945312 143.226562 150.9375 C 142.785156 150.914062 142.347656 150.882812 141.90625 150.84375 C 141.144531 150.769531 140.378906 150.664062 139.625 150.535156 C 139.183594 150.460938 138.738281 150.378906 138.300781 150.292969 C 137.378906 150.113281 136.460938 149.910156 135.558594 149.707031 C 135.160156 149.617188 134.753906 149.53125 134.355469 149.445312 C 131.503906 148.828125 128.183594 148.214844 125.007812 148.652344 C 122.261719 149.03125 119.875 150.242188 118.351562 151.976562 L 122.972656 172.277344 L 123.042969 170.125 C 123.082031 168.824219 123.628906 167.617188 124.574219 166.730469 C 125.523438 165.839844 126.761719 165.371094 128.058594 165.414062 L 135.585938 165.65625 C 136.570312 165.683594 137.472656 166.007812 138.21875 166.53125 C 137.96875 166.136719 137.777344 165.710938 137.644531 165.246094 L 136.960938 162.875 C 136.421875 161.003906 137.066406 159.070312 138.441406 157.867188 C 138.824219 157.53125 139.261719 157.257812 139.746094 157.050781 C 139.921875 156.976562 140.109375 156.910156 140.296875 156.855469 L 142.007812 156.367188 L 143.316406 155.992188 L 145.488281 155.367188 C 146.734375 155.007812 148.050781 155.15625 149.183594 155.789062 C 150.324219 156.417969 151.144531 157.453125 151.503906 158.699219 L 152.164062 161 Z M 152.480469 182.464844 L 152.214844 163.695312 C 152.113281 164.066406 151.964844 164.425781 151.777344 164.773438 C 151.144531 165.910156 150.109375 166.734375 148.859375 167.09375 L 143.671875 168.582031 C 143.636719 168.59375 143.59375 168.605469 143.5625 168.613281 C 143.347656 168.671875 143.132812 168.714844 142.917969 168.738281 C 142.699219 168.761719 142.46875 168.777344 142.246094 168.773438 C 141.457031 168.761719 140.679688 168.554688 139.96875 168.164062 C 139.816406 168.082031 139.671875 167.992188 139.535156 167.890625 C 139.714844 168.167969 139.863281 168.460938 139.980469 168.765625 C 140.210938 169.355469 140.324219 170 140.304688 170.671875 L 140.199219 173.855469 C 140.199219 173.960938 140.191406 174.0625 140.179688 174.164062 C 140.082031 175.238281 139.628906 176.238281 138.890625 177.023438 C 138.824219 177.101562 138.746094 177.175781 138.671875 177.246094 C 138.445312 177.453125 138.207031 177.644531 137.957031 177.800781 C 137.972656 177.796875 137.984375 177.792969 138.003906 177.785156 L 138.898438 177.503906 L 140.210938 177.085938 L 142.394531 176.394531 L 143.707031 175.980469 L 145.179688 175.515625 C 146.417969 175.121094 147.734375 175.234375 148.890625 175.832031 C 150.046875 176.429688 150.898438 177.441406 151.289062 178.679688 L 152.488281 182.46875 Z M 150.617188 164.132812 C 151.082031 163.300781 151.1875 162.347656 150.925781 161.433594 L 150.242188 159.0625 C 149.980469 158.152344 149.382812 157.394531 148.550781 156.933594 C 147.890625 156.570312 147.140625 156.425781 146.402344 156.515625 C 146.222656 156.539062 146.035156 156.574219 145.855469 156.628906 L 140.664062 158.121094 C 138.78125 158.660156 137.691406 160.628906 138.234375 162.511719 L 138.914062 164.882812 C 139.175781 165.792969 139.777344 166.546875 140.609375 167.003906 C 141.433594 167.46875 142.394531 167.574219 143.304688 167.316406 L 148.496094 165.828125 C 148.949219 165.695312 149.367188 165.480469 149.730469 165.191406 C 150.089844 164.90625 150.394531 164.546875 150.621094 164.132812 Z M 152.578125 189.476562 L 152.519531 185.457031 C 152.433594 185.730469 152.324219 186.003906 152.191406 186.265625 C 151.589844 187.417969 150.582031 188.273438 149.339844 188.664062 L 143.042969 190.660156 L 152.582031 189.476562 Z M 151.023438 185.660156 C 151.457031 184.816406 151.539062 183.859375 151.257812 182.953125 L 150.027344 179.074219 C 149.738281 178.171875 149.121094 177.433594 148.277344 176.996094 C 147.632812 176.664062 146.921875 176.539062 146.214844 176.625 C 146 176.652344 145.785156 176.695312 145.574219 176.765625 L 138.390625 179.039062 C 136.527344 179.632812 135.488281 181.632812 136.078125 183.492188 L 137.308594 187.371094 C 137.898438 189.238281 139.898438 190.273438 141.761719 189.683594 L 148.945312 187.410156 C 149.390625 187.265625 149.804688 187.042969 150.15625 186.746094 C 150.507812 186.449219 150.800781 186.082031 151.023438 185.664062 Z M 138.980469 170.625 C 139.042969 168.667969 137.503906 167.027344 135.546875 166.964844 L 128.023438 166.722656 C 127.832031 166.714844 127.644531 166.726562 127.464844 166.75 C 126.722656 166.84375 126.035156 167.164062 125.476562 167.683594 C 124.789062 168.332031 124.390625 169.210938 124.363281 170.160156 L 124.257812 173.347656 C 124.230469 174.292969 124.570312 175.195312 125.21875 175.886719 C 125.867188 176.574219 126.746094 176.976562 127.695312 177.003906 L 135.222656 177.246094 C 135.410156 177.25 135.601562 177.246094 135.78125 177.21875 C 136.519531 177.128906 137.210938 176.804688 137.765625 176.28125 C 138.453125 175.636719 138.851562 174.757812 138.882812 173.808594 L 138.984375 170.625 Z M 127.59375 192.570312 L 139.726562 191.066406 C 138.050781 190.726562 136.601562 189.507812 136.046875 187.765625 L 134.820312 183.886719 C 134.140625 181.746094 135.027344 179.472656 136.839844 178.320312 C 136.550781 178.414062 136.246094 178.484375 135.9375 178.523438 C 135.6875 178.554688 135.433594 178.566406 135.175781 178.558594 L 127.648438 178.316406 C 126.351562 178.273438 125.144531 177.730469 124.253906 176.78125 C 124.132812 176.648438 124.011719 176.507812 123.902344 176.363281 Z M 127.59375 192.570312 " fill-opacity="1" fill-rule="nonzero"/></g></svg>