<svg xmlns="http://www.w3.org/2000/svg" xmlns:xlink="http://www.w3.org/1999/xlink" width="500" zoomAndPan="magnify" viewBox="0 0 375 374.999991" height="500" preserveAspectRatio="xMidYMid meet" version="1.0"><defs><clipPath id="078896c3ea"><path d="M 192 98 L 356 98 L 356 280 L 192 280 Z M 192 98 " clip-rule="nonzero"/></clipPath><clipPath id="461d35cf90"><path d="M 188.132812 113.300781 L 349.675781 90.226562 L 375.417969 270.441406 L 213.875 293.515625 Z M 188.132812 113.300781 " clip-rule="nonzero"/></clipPath><clipPath id="90fb620060"><path d="M 349.265625 90.28125 L 187.722656 113.359375 L 213.464844 293.574219 L 375.007812 270.5 Z M 349.265625 90.28125 " clip-rule="nonzero"/></clipPath><clipPath id="012615b92f"><path d="M 32 104.78125 L 71 104.78125 L 71 144 L 32 144 Z M 32 104.78125 " clip-rule="nonzero"/></clipPath><clipPath id="af28f98cd2"><path d="M 15.425781 122 L 121 122 L 121 293 L 15.425781 293 Z M 15.425781 122 " clip-rule="nonzero"/></clipPath><clipPath id="ee6193d8ee"><path d="M 116 155 L 203.132812 155 L 203.132812 293.433594 L 116 293.433594 Z M 116 155 " clip-rule="nonzero"/></clipPath></defs><rect x="-37.5" width="450" fill="#ffffff" y="-37.499999" height="449.999989" fill-opacity="1"/><rect x="-37.5" width="450" fill="#000000" y="-37.499999" height="449.999989" fill-opacity="1"/><g clip-path="url(#078896c3ea)"><g clip-path="url(#461d35cf90)"><g clip-path="url(#90fb620060)"><path fill="#ffffff" d="M 316.03125 278.828125 C 316.585938 278.714844 317.519531 278.578125 318.425781 278.335938 C 321.667969 277.46875 323.128906 275.210938 322.84375 271.644531 C 322.625 268.957031 321.808594 266.410156 321.042969 263.855469 C 319.203125 257.722656 317.976562 251.457031 316.902344 245.160156 C 315.300781 235.800781 313.515625 226.46875 310.683594 217.394531 C 304.988281 199.15625 296.820312 182.152344 284.9375 167.066406 C 284.847656 166.953125 284.753906 166.84375 284.664062 166.730469 C 284.195312 166.132812 283.582031 165.921875 282.957031 166.363281 C 282.300781 166.832031 282.414062 167.480469 282.855469 168.078125 C 283.777344 169.324219 284.710938 170.5625 285.632812 171.804688 C 286.34375 172.757812 287.03125 173.730469 287.757812 174.671875 C 288.046875 175.046875 288.007812 175.253906 287.613281 175.523438 C 286.167969 176.507812 284.558594 177.128906 282.917969 177.691406 C 282.367188 177.882812 282.226562 177.484375 282.027344 177.160156 C 280.011719 173.90625 277.699219 170.871094 275.335938 167.867188 C 274.421875 166.710938 273.734375 166.410156 273.148438 166.992188 C 272.273438 167.871094 272.964844 168.570312 273.515625 169.238281 C 281.425781 178.886719 286.800781 189.933594 291.335938 201.445312 C 295.917969 213.070312 298.75 225.109375 299.996094 237.535156 C 300.675781 244.332031 300.675781 251.148438 300.625 257.96875 C 300.59375 262.148438 300.242188 266.324219 300.484375 270.507812 C 300.855469 276.96875 302.910156 279 309.394531 279.171875 C 311.488281 279.226562 313.582031 279.136719 316.03125 278.828125 Z M 302.8125 271.359375 C 302.777344 270.769531 302.675781 269.941406 302.6875 269.113281 C 302.753906 263.816406 302.859375 258.523438 302.910156 253.226562 C 302.917969 252.539062 303.109375 252.464844 303.714844 252.554688 C 307.484375 253.113281 311.128906 252.574219 314.613281 251.09375 C 315.503906 250.714844 315.652344 250.90625 315.8125 251.75 C 316.707031 256.574219 317.894531 261.328125 319.308594 266.03125 C 319.972656 268.230469 320.710938 270.441406 320.574219 272.804688 C 320.46875 274.621094 319.816406 275.527344 318.105469 276.03125 C 314.761719 277.011719 311.335938 277.035156 307.910156 276.78125 C 304.414062 276.523438 303.382812 275.472656 302.90625 272.023438 C 302.886719 271.882812 302.867188 271.738281 302.8125 271.359375 Z M 301.574219 232.585938 C 301.238281 230.226562 300.941406 227.863281 300.539062 225.515625 C 300.402344 224.722656 300.546875 224.527344 301.34375 224.597656 C 304.078125 224.847656 306.75 224.476562 309.316406 223.519531 C 309.917969 223.292969 310.058594 223.472656 310.179688 223.992188 C 310.539062 225.539062 310.953125 227.070312 311.296875 228.621094 C 312.699219 234.925781 314.046875 241.246094 315.035156 247.632812 C 315.113281 248.136719 315.027344 248.433594 314.550781 248.65625 C 311.050781 250.285156 307.410156 250.878906 303.585938 250.25 C 303.070312 250.167969 302.878906 249.953125 302.878906 249.398438 C 302.886719 243.761719 302.394531 238.15625 301.574219 232.585938 Z M 305.300781 222.222656 C 303.792969 222.480469 302.289062 222.402344 300.773438 222.285156 C 300.105469 222.234375 299.847656 221.96875 299.714844 221.339844 C 298.300781 214.707031 296.402344 208.210938 293.933594 201.890625 C 293.636719 201.132812 293.871094 200.972656 294.554688 200.875 C 296.605469 200.570312 298.546875 199.898438 300.316406 198.816406 C 300.964844 198.417969 301.203125 198.539062 301.464844 199.191406 C 302.429688 201.59375 303.46875 203.96875 304.414062 206.382812 C 306.195312 210.945312 307.816406 215.5625 309.1875 220.269531 C 309.371094 220.902344 309.273438 221.148438 308.640625 221.359375 C 307.542969 221.726562 306.449219 222.078125 305.300781 222.222656 Z M 283.65625 179.863281 C 285.445312 179.234375 287.175781 178.601562 288.683594 177.535156 C 289.269531 177.117188 289.539062 177.199219 289.917969 177.796875 C 293.535156 183.523438 296.835938 189.421875 299.773438 195.527344 C 300.066406 196.132812 299.949219 196.40625 299.414062 196.71875 C 297.683594 197.738281 295.839844 198.390625 293.855469 198.71875 C 293.046875 198.851562 292.675781 198.703125 292.34375 197.890625 C 291.277344 195.253906 290.121094 192.65625 288.953125 190.066406 C 287.382812 186.589844 285.53125 183.257812 283.65625 179.863281 Z M 222.945312 168.0625 C 220.050781 170.863281 217.558594 173.988281 215.421875 177.402344 C 214.9375 178.175781 214.828125 179.003906 214.941406 179.894531 C 215.308594 182.761719 216.792969 185.171875 218.105469 187.65625 C 218.222656 187.875 218.40625 188.066406 218.507812 188.292969 C 218.761719 188.875 218.984375 189.511719 218.332031 189.949219 C 217.71875 190.355469 217.136719 190.101562 216.710938 189.566406 C 216.375 189.148438 216.074219 188.695312 215.808594 188.226562 C 214.707031 186.296875 213.800781 184.273438 213.011719 182.167969 C 212.570312 182.382812 212.53125 182.769531 212.390625 183.078125 C 211.511719 184.980469 210.882812 186.980469 210.132812 188.933594 C 209.351562 190.960938 209.71875 192.734375 210.808594 194.476562 C 211.417969 195.453125 212.042969 196.421875 212.621094 197.417969 C 212.910156 197.914062 212.992188 198.5 212.472656 198.890625 C 211.953125 199.285156 211.378906 199.179688 210.898438 198.726562 C 210.363281 198.230469 210.046875 197.570312 209.636719 196.980469 C 209.347656 196.5625 209.203125 196.027344 208.675781 195.664062 C 208.371094 197.167969 208.269531 198.605469 208.195312 200.039062 C 208.140625 201.121094 208.171875 202.203125 208.132812 203.285156 C 208.109375 204.058594 207.914062 204.792969 206.953125 204.777344 C 206.066406 204.765625 205.867188 204.085938 205.832031 203.339844 C 205.824219 203.195312 205.828125 203.050781 205.828125 202.90625 C 205.84375 193.242188 208.320312 184.246094 213.558594 176.128906 C 222.644531 162.058594 235.429688 153.921875 252.28125 152.558594 C 253.929688 152.421875 255.597656 152.507812 257.253906 152.539062 C 258.027344 152.554688 258.765625 152.820312 258.710938 153.769531 C 258.65625 154.734375 257.898438 154.828125 257.121094 154.800781 C 256.796875 154.789062 256.472656 154.773438 256.148438 154.765625 C 254.414062 154.738281 252.6875 154.8125 250.953125 154.898438 C 249.644531 154.964844 249.023438 155.648438 248.609375 156.738281 C 248.007812 158.324219 247.484375 159.929688 247.121094 161.585938 C 247.035156 161.972656 246.9375 162.363281 246.777344 162.71875 C 246.558594 163.199219 246.128906 163.410156 245.617188 163.304688 C 245.152344 163.210938 244.886719 162.882812 244.808594 162.402344 C 244.722656 161.886719 244.816406 161.394531 244.925781 160.902344 C 245.25 159.421875 245.742188 157.988281 246.222656 156.554688 C 246.292969 156.34375 246.539062 155.949219 246.382812 155.761719 C 246.21875 155.558594 245.71875 155.710938 245.476562 155.789062 C 243.117188 156.5 243.53125 156.238281 240.273438 157.261719 C 239.0625 157.640625 238.335938 158.402344 237.789062 159.488281 C 236.660156 161.71875 236.609375 164.140625 236.480469 166.550781 C 236.378906 168.496094 236.367188 170.445312 236.507812 172.390625 C 236.554688 173.015625 236.433594 173.578125 235.714844 173.726562 C 234.953125 173.882812 234.597656 173.386719 234.378906 172.757812 C 234.269531 172.4375 234.234375 172.175781 234.226562 172.128906 C 234.046875 170.363281 233.957031 163.675781 234.609375 161.363281 C 234.875 160.40625 234.972656 160.171875 234.972656 160.171875 C 235.15625 159.710938 235.34375 159.386719 235.265625 159.320312 C 235.21875 159.285156 235.101562 159.367188 234.714844 159.605469 C 234.539062 159.714844 234.355469 159.8125 234.179688 159.921875 C 233.480469 160.367188 230.40625 162.058594 228.367188 163.484375 C 227.5625 164.050781 227.03125 164.773438 226.660156 165.660156 C 225.644531 168.078125 225.460938 170.613281 225.609375 173.195312 C 225.753906 175.757812 226.007812 178.308594 226.511719 180.828125 C 226.625 181.40625 226.558594 181.933594 225.914062 182.160156 C 225.25 182.394531 224.789062 182.09375 224.503906 181.507812 C 224.363281 181.21875 224.246094 180.90625 224.1875 180.59375 C 223.511719 177 223.179688 173.378906 223.359375 169.71875 C 223.390625 169.054688 223.507812 168.390625 223.585938 167.722656 C 223.226562 167.71875 223.097656 167.914062 222.945312 168.0625 Z M 298.429688 137.699219 C 299.210938 138.597656 299.941406 139.539062 300.484375 140.605469 C 300.761719 141.152344 300.6875 141.679688 300.171875 142.046875 C 299.640625 142.425781 299.125 142.257812 298.714844 141.820312 C 298.398438 141.480469 298.136719 141.085938 297.863281 140.707031 C 296.015625 138.113281 293.722656 136.011719 290.957031 134.421875 C 290.164062 133.964844 289.476562 133.984375 288.660156 134.496094 C 284.664062 136.992188 280.996094 139.878906 277.753906 143.304688 C 277.554688 143.511719 277.371094 143.753906 277.128906 143.898438 C 276.636719 144.195312 276.101562 144.296875 275.644531 143.824219 C 275.199219 143.363281 275.234375 142.84375 275.59375 142.355469 C 275.828125 142.035156 276.097656 141.738281 276.371094 141.457031 C 284.351562 133.203125 294.023438 127.9375 305.1875 125.539062 C 320.046875 122.351562 334.222656 124.429688 347.59375 131.710938 C 350.132812 133.09375 352.53125 134.703125 354.816406 136.476562 C 355.785156 137.226562 355.882812 138.261719 355.046875 138.675781 C 354.4375 138.980469 353.941406 138.683594 353.460938 138.316406 C 351.484375 136.792969 349.433594 135.386719 347.257812 134.160156 C 346.875 133.945312 346.542969 133.566406 345.957031 133.628906 C 346.457031 135.164062 346.675781 136.695312 346.652344 138.253906 C 346.640625 139.046875 346.484375 139.878906 345.453125 139.839844 C 344.519531 139.804688 344.351562 139.058594 344.371094 138.269531 C 344.398438 137.253906 344.292969 136.246094 344.042969 135.265625 C 343.496094 133.121094 342.554688 131.410156 340.1875 130.632812 C 337.382812 129.714844 334.625 128.65625 331.738281 127.988281 C 330.070312 127.601562 328.402344 127.222656 326.523438 127.042969 C 326.730469 127.417969 326.855469 127.660156 326.992188 127.894531 C 328.113281 129.785156 329.144531 131.722656 329.953125 133.773438 C 330.453125 135.050781 330.867188 136.359375 331.09375 137.714844 C 331.199219 138.328125 330.941406 138.789062 330.332031 138.96875 C 329.710938 139.152344 329.285156 138.832031 329.007812 138.304688 C 328.890625 138.085938 328.847656 137.828125 328.78125 137.585938 C 327.804688 133.921875 326.152344 130.585938 323.9375 127.515625 C 323.488281 126.886719 322.960938 126.578125 322.15625 126.527344 C 320.207031 126.402344 318.261719 126.367188 316.320312 126.421875 C 313.589844 126.5 310.882812 126.792969 308.195312 127.285156 C 308.214844 127.667969 308.480469 127.765625 308.640625 127.941406 C 311.40625 130.96875 313.800781 134.238281 315.253906 138.117188 C 315.382812 138.449219 315.484375 138.800781 315.542969 139.152344 C 315.640625 139.757812 315.441406 140.246094 314.824219 140.4375 C 314.207031 140.628906 313.769531 140.3125 313.496094 139.785156 C 313.296875 139.402344 313.167969 138.984375 313 138.585938 C 311.414062 134.8125 309.078125 131.5625 306.144531 128.71875 C 305.441406 128.035156 304.738281 127.871094 303.8125 128.152344 C 301.773438 128.761719 299.722656 129.328125 297.738281 130.105469 C 295.945312 130.804688 294.152344 131.515625 292.363281 132.527344 C 294.703125 134.015625 296.699219 135.707031 298.429688 137.699219 Z M 203.171875 138.238281 C 200.382812 139.445312 197.78125 140.980469 195.328125 142.761719 C 194.121094 143.640625 193.457031 143.738281 192.980469 143.09375 C 192.496094 142.433594 192.78125 141.800781 193.972656 140.933594 C 203.765625 133.804688 214.746094 131.382812 226.640625 132.851562 C 237.695312 134.21875 247.515625 138.753906 256.648438 144.933594 C 256.828125 145.054688 257 145.195312 257.136719 145.359375 C 257.492188 145.785156 257.585938 146.261719 257.257812 146.746094 C 256.949219 147.203125 256.46875 147.277344 256.003906 147.128906 C 255.636719 147.011719 255.300781 146.769531 254.972656 146.546875 C 252.671875 144.992188 250.289062 143.5625 247.84375 142.238281 C 247.285156 141.9375 246.722656 141.78125 246.089844 141.8125 C 242.398438 142 239.152344 143.355469 236.289062 145.632812 C 235.132812 146.550781 234.082031 147.601562 232.988281 148.59375 C 232.445312 149.085938 231.847656 149.296875 231.265625 148.71875 C 230.683594 148.136719 230.882812 147.503906 231.386719 146.996094 C 234.183594 144.195312 237.15625 141.648438 241.058594 140.488281 C 241.617188 140.324219 242.167969 140.125 242.941406 139.871094 C 241.015625 139.003906 239.246094 138.410156 237.515625 137.71875 C 236.238281 137.210938 235.054688 137.308594 233.839844 137.75 C 232.789062 138.128906 231.777344 138.589844 230.789062 139.117188 C 227.234375 141.015625 224.304688 143.65625 221.671875 146.65625 C 221.179688 147.21875 220.546875 147.59375 219.886719 147.035156 C 219.175781 146.4375 219.453125 145.742188 219.988281 145.144531 C 221.992188 142.917969 224.054688 140.757812 226.5625 139.0625 C 228.128906 138.003906 229.757812 137.050781 231.609375 136.105469 C 229.113281 135.46875 226.765625 135.152344 224.40625 134.925781 C 224.175781 134.90625 223.921875 135.039062 223.691406 135.128906 C 220.125 136.492188 217.066406 138.578125 214.570312 141.496094 C 213.460938 142.792969 212.554688 144.222656 211.621094 145.636719 C 211.203125 146.277344 210.660156 146.835938 209.847656 146.328125 C 209.027344 145.816406 209.3125 145.085938 209.707031 144.429688 C 211.949219 140.707031 214.679688 137.441406 218.46875 135.179688 C 218.578125 135.117188 218.738281 135.046875 218.683594 134.785156 C 216.570312 134.78125 214.488281 135.15625 212.390625 135.417969 C 210.578125 135.640625 209.140625 136.503906 207.832031 137.683594 C 206.699219 138.703125 205.707031 139.84375 204.871094 141.121094 C 203.777344 142.78125 202.914062 144.570312 202.054688 146.355469 C 201.722656 147.042969 201.253906 147.5625 200.449219 147.203125 C 199.652344 146.847656 199.683594 146.105469 199.988281 145.4375 C 201.042969 143.140625 202.160156 140.875 203.683594 138.839844 C 203.882812 138.570312 204.253906 138.375 204.1875 137.929688 C 203.796875 137.886719 203.492188 138.097656 203.171875 138.238281 Z M 300.046875 164.546875 C 299.996094 166.015625 299.609375 166.59375 298.789062 166.570312 C 297.957031 166.546875 297.683594 165.949219 297.757812 164.449219 C 297.933594 160.816406 297.492188 157.273438 295.613281 154.105469 C 293.691406 150.859375 294.414062 151.175781 290.800781 152.054688 C 290.488281 152.128906 290.175781 152.222656 289.863281 152.3125 C 289.144531 152.527344 288.453125 152.550781 288.164062 151.699219 C 287.878906 150.851562 288.429688 150.410156 289.128906 150.15625 C 290.765625 149.554688 292.476562 149.1875 294.191406 149.042969 C 298.203125 148.703125 302.1875 149.035156 306.097656 150.011719 C 319.757812 153.410156 331.082031 160.640625 340.421875 171.066406 C 343.933594 174.984375 346.738281 179.375 348.648438 184.300781 C 348.949219 185.074219 349.171875 185.875 348.183594 186.332031 C 347.453125 186.675781 346.871094 186.25 346.488281 185.179688 C 345.15625 181.4375 343.09375 178.113281 340.695312 174.980469 C 340.535156 174.769531 340.429688 174.449219 340.042969 174.4375 C 340.027344 174.835938 340.023438 175.230469 339.992188 175.625 C 339.859375 177.328125 339.421875 178.957031 338.722656 180.515625 C 338.421875 181.183594 337.898438 181.597656 337.171875 181.3125 C 336.410156 181.015625 336.4375 180.328125 336.640625 179.652344 C 336.691406 179.480469 336.765625 179.316406 336.832031 179.148438 C 337.726562 176.914062 337.941406 174.621094 337.53125 172.246094 C 337.382812 171.394531 337.074219 170.695312 336.457031 170.074219 C 333.757812 167.351562 330.855469 164.867188 327.75 162.621094 C 327.566406 162.488281 327.394531 162.226562 326.957031 162.445312 C 327.070312 163.246094 327.21875 164.085938 327.308594 164.9375 C 327.535156 167.058594 327.109375 169.097656 326.445312 171.097656 C 326.222656 171.769531 325.734375 172.128906 325.027344 171.925781 C 324.3125 171.714844 324.144531 171.144531 324.296875 170.457031 C 324.363281 170.175781 324.417969 169.890625 324.507812 169.617188 C 325.265625 167.289062 325.242188 164.921875 324.707031 162.566406 C 324.445312 161.433594 324.269531 160.214844 323.089844 159.519531 C 319.917969 157.648438 316.660156 155.953125 313.222656 154.613281 C 312.984375 154.519531 312.734375 154.277344 312.367188 154.554688 C 313.296875 156.640625 313.644531 158.878906 313.839844 161.140625 C 313.992188 162.90625 313.902344 164.667969 313.523438 166.410156 C 313.359375 167.164062 312.976562 167.742188 312.132812 167.578125 C 311.269531 167.414062 311.199219 166.695312 311.292969 165.960938 C 311.308594 165.851562 311.347656 165.75 311.363281 165.644531 C 311.84375 162.675781 311.65625 159.75 310.796875 156.867188 C 310.0625 154.394531 308.816406 152.671875 305.953125 152.25 C 302.890625 151.796875 299.871094 151.160156 296.625 151.21875 C 299.878906 156.410156 300.179688 160.699219 300.046875 164.546875 Z M 244.976562 195.847656 C 247.082031 198.820312 249.328125 201.296875 251.691406 203.667969 C 252.226562 204.203125 252.761719 204.746094 253.433594 205.117188 C 254.019531 205.441406 254.636719 205.589844 255.082031 204.964844 C 255.511719 204.359375 255.246094 203.789062 254.726562 203.351562 C 252.742188 201.664062 251.027344 199.710938 249.324219 197.75 C 247.996094 196.226562 246.796875 194.613281 246.019531 192.714844 C 245.710938 191.957031 245.585938 191.226562 245.773438 190.40625 C 246.304688 188.125 246.894531 185.863281 247.753906 183.65625 C 248.207031 183.78125 248.242188 184.191406 248.410156 184.472656 C 250.25 187.59375 252.472656 190.417969 254.941406 193.058594 C 255.359375 193.507812 255.820312 193.921875 256.386719 194.175781 C 256.917969 194.414062 257.457031 194.464844 257.84375 193.925781 C 258.257812 193.351562 258.085938 192.792969 257.597656 192.386719 C 255.46875 190.613281 253.886719 188.371094 252.246094 186.179688 C 251.105469 184.652344 250.046875 183.054688 249.445312 181.214844 C 249.296875 180.757812 249.160156 180.285156 249.367188 179.839844 C 250.449219 177.484375 251.722656 175.238281 253.375 172.929688 C 254.253906 176.222656 256.210938 178.667969 258.078125 181.160156 C 258.574219 181.820312 259.136719 182.4375 259.722656 183.015625 C 260.28125 183.566406 260.992188 183.871094 261.632812 183.21875 C 262.277344 182.5625 261.789062 181.960938 261.300781 181.4375 C 259.800781 179.816406 258.554688 178.007812 257.324219 176.1875 C 256.753906 175.347656 256.328125 174.4375 255.945312 173.5 C 255.1875 171.625 255.035156 169.867188 256.835938 168.433594 C 257.109375 168.214844 257.320312 167.898438 257.523438 167.601562 C 257.863281 167.101562 257.898438 166.574219 257.445312 166.128906 C 256.945312 165.632812 256.394531 165.753906 255.882812 166.128906 C 255.679688 166.273438 255.519531 166.484375 255.355469 166.671875 C 246.605469 176.734375 242.214844 188.386719 242.523438 201.761719 C 242.679688 208.519531 244.175781 214.980469 246.691406 221.226562 C 246.730469 221.328125 246.785156 221.421875 246.828125 221.523438 C 247.152344 222.296875 247.5625 223.070312 248.5625 222.648438 C 249.515625 222.242188 249.253906 221.390625 248.957031 220.683594 C 247.785156 217.882812 246.871094 215 246.152344 212.058594 C 246.109375 211.871094 246.054688 211.648438 245.976562 211.261719 C 245.867188 210.726562 245.863281 210.609375 245.90625 210.59375 C 245.960938 210.570312 246.070312 210.765625 246.320312 211.054688 C 246.492188 211.257812 246.617188 211.347656 246.863281 211.59375 C 247.707031 212.433594 248.53125 213.300781 249.527344 213.964844 C 249.882812 214.203125 250.28125 214.394531 250.679688 214.542969 C 251.238281 214.757812 251.789062 214.6875 252.089844 214.117188 C 252.40625 213.515625 252.199219 212.964844 251.632812 212.628906 C 249.863281 211.578125 248.570312 210.023438 247.1875 208.550781 C 245.523438 206.78125 244.714844 204.765625 244.78125 202.292969 C 244.835938 200.25 244.761719 198.207031 244.976562 195.847656 Z M 268.363281 130.347656 C 268.386719 130.371094 268.507812 130.289062 268.585938 130.253906 C 269.261719 129.851562 269.941406 129.453125 270.617188 129.042969 C 273.132812 127.519531 275.921875 126.832031 278.785156 126.359375 C 279.5 126.242188 280.140625 126.378906 280.292969 127.191406 C 280.457031 128.058594 279.871094 128.414062 279.125 128.574219 C 278.878906 128.625 278.628906 128.660156 278.378906 128.707031 C 275.40625 129.261719 272.621094 130.269531 270.128906 132.035156 C 268.472656 133.207031 266.929688 134.394531 267.007812 136.734375 C 267.03125 137.464844 266.554688 137.976562 265.757812 137.910156 C 264.988281 137.847656 264.773438 137.273438 264.769531 136.597656 C 264.769531 136.347656 264.804688 136.097656 264.84375 135.847656 C 267.46875 119.164062 276.4375 107.0625 291.289062 99.207031 C 291.863281 98.90625 292.453125 98.621094 293.066406 98.417969 C 293.613281 98.238281 294.167969 98.332031 294.453125 98.925781 C 294.746094 99.539062 294.566406 100.054688 293.996094 100.414062 C 293.753906 100.570312 293.484375 100.675781 293.222656 100.800781 C 290.109375 102.25 287.191406 104.019531 284.5 106.160156 C 284.3125 106.308594 283.941406 106.375 284.039062 106.828125 C 284.332031 106.789062 284.605469 106.746094 284.886719 106.710938 C 286.902344 106.453125 288.914062 106.542969 290.929688 106.746094 C 291.035156 106.757812 291.144531 106.777344 291.246094 106.800781 C 291.976562 106.972656 292.585938 107.308594 292.472656 108.171875 C 292.355469 109.078125 291.660156 109.15625 290.917969 109.054688 C 287.917969 108.65625 284.949219 108.773438 282.011719 109.546875 C 280.800781 109.863281 279.71875 110.328125 278.875 111.3125 C 277.554688 112.847656 276.234375 114.375 275.082031 116.042969 C 274.613281 116.722656 274.160156 117.421875 273.691406 118.105469 C 273.554688 118.304688 273.523438 118.535156 273.648438 118.710938 C 273.777344 118.894531 273.9375 118.726562 274.101562 118.652344 C 277.699219 117.042969 281.453125 116.140625 285.417969 116.214844 C 285.960938 116.222656 286.507812 116.167969 287.023438 116.363281 C 287.578125 116.570312 287.957031 116.949219 287.851562 117.589844 C 287.757812 118.160156 287.363281 118.453125 286.792969 118.496094 C 286.542969 118.511719 286.289062 118.484375 286.039062 118.480469 C 281.121094 118.382812 276.546875 119.59375 272.320312 122.105469 C 271.664062 122.496094 271.011719 122.949219 270.695312 123.648438 C 269.75 125.710938 268.871094 127.800781 268.390625 130.035156 C 268.285156 130.128906 268.257812 130.246094 268.363281 130.347656 Z M 271.683594 157.792969 C 272.402344 161.746094 276.128906 164.230469 280.207031 163.484375 C 284.152344 162.765625 286.605469 159.039062 285.847656 154.914062 C 285.144531 151.09375 281.402344 148.597656 277.445312 149.3125 C 273.453125 150.03125 270.945312 153.730469 271.683594 157.792969 Z M 278.007812 151.472656 C 280.773438 151.058594 283.316406 152.921875 283.714844 155.660156 C 284.117188 158.417969 282.242188 160.949219 279.5 161.347656 C 276.742188 161.75 274.242188 159.867188 273.839844 157.09375 C 273.449219 154.394531 275.316406 151.878906 278.007812 151.472656 Z M 260.6875 148.167969 C 261.238281 151.644531 264.371094 153.941406 267.800781 153.386719 C 271.226562 152.828125 273.53125 149.644531 272.980469 146.21875 C 272.445312 142.890625 269.285156 140.53125 266.015625 141.027344 C 262.46875 141.566406 260.136719 144.6875 260.6875 148.167969 Z M 266.28125 143.296875 C 268.480469 143 270.507812 144.511719 270.792969 146.65625 C 271.074219 148.820312 269.5 150.917969 267.394531 151.183594 C 265.222656 151.453125 263.1875 149.910156 262.894531 147.765625 C 262.59375 145.550781 264.078125 143.589844 266.28125 143.296875 Z M 258.886719 161.90625 C 259.367188 165.226562 262.496094 167.515625 265.859375 167.007812 C 269.121094 166.519531 271.421875 163.417969 270.96875 160.125 C 270.503906 156.746094 267.402344 154.453125 263.976562 154.960938 C 260.601562 155.457031 258.390625 158.472656 258.886719 161.90625 Z M 261.109375 161.550781 C 260.78125 159.445312 262.191406 157.496094 264.296875 157.160156 C 266.414062 156.820312 268.445312 158.316406 268.746094 160.441406 C 269.039062 162.503906 267.550781 164.484375 265.464844 164.8125 C 263.40625 165.136719 261.441406 163.664062 261.109375 161.550781 Z M 261.109375 161.550781 " fill-opacity="1" fill-rule="nonzero"/><path fill="#ffffff" d="M 316.03125 278.828125 C 316.585938 278.714844 317.519531 278.578125 318.425781 278.335938 C 321.667969 277.46875 323.128906 275.210938 322.84375 271.644531 C 322.625 268.957031 321.808594 266.410156 321.042969 263.855469 C 319.203125 257.722656 317.976562 251.457031 316.902344 245.160156 C 315.300781 235.800781 313.515625 226.46875 310.683594 217.394531 C 304.988281 199.15625 296.820312 182.152344 284.9375 167.066406 C 284.847656 166.953125 284.753906 166.84375 284.664062 166.730469 C 284.195312 166.132812 283.582031 165.921875 282.957031 166.363281 C 282.300781 166.832031 282.414062 167.480469 282.855469 168.078125 C 283.777344 169.324219 284.710938 170.5625 285.632812 171.804688 C 286.34375 172.757812 287.03125 173.730469 287.757812 174.671875 C 288.046875 175.046875 288.007812 175.253906 287.613281 175.523438 C 286.167969 176.507812 284.558594 177.128906 282.917969 177.691406 C 282.367188 177.882812 282.226562 177.484375 282.027344 177.160156 C 280.011719 173.90625 277.699219 170.871094 275.335938 167.867188 C 274.421875 166.710938 273.734375 166.410156 273.148438 166.992188 C 272.273438 167.871094 272.964844 168.570312 273.515625 169.238281 C 281.425781 178.886719 286.800781 189.933594 291.335938 201.445312 C 295.917969 213.070312 298.75 225.109375 299.996094 237.535156 C 300.675781 244.332031 300.675781 251.148438 300.625 257.96875 C 300.59375 262.148438 300.242188 266.324219 300.484375 270.507812 C 300.855469 276.96875 302.910156 279 309.394531 279.171875 C 311.488281 279.226562 313.582031 279.136719 316.03125 278.828125 Z M 302.8125 271.359375 C 302.777344 270.769531 302.675781 269.941406 302.6875 269.113281 C 302.753906 263.816406 302.859375 258.523438 302.910156 253.226562 C 302.917969 252.539062 303.109375 252.464844 303.714844 252.554688 C 307.484375 253.113281 311.128906 252.574219 314.613281 251.09375 C 315.503906 250.714844 315.652344 250.90625 315.8125 251.75 C 316.707031 256.574219 317.894531 261.328125 319.308594 266.03125 C 319.972656 268.230469 320.710938 270.441406 320.574219 272.804688 C 320.46875 274.621094 319.816406 275.527344 318.105469 276.03125 C 314.761719 277.011719 311.335938 277.035156 307.910156 276.78125 C 304.414062 276.523438 303.382812 275.472656 302.90625 272.023438 C 302.886719 271.882812 302.867188 271.738281 302.8125 271.359375 Z M 301.574219 232.585938 C 301.238281 230.226562 300.941406 227.863281 300.539062 225.515625 C 300.402344 224.722656 300.546875 224.527344 301.34375 224.597656 C 304.078125 224.847656 306.75 224.476562 309.316406 223.519531 C 309.917969 223.292969 310.058594 223.472656 310.179688 223.992188 C 310.539062 225.539062 310.953125 227.070312 311.296875 228.621094 C 312.699219 234.925781 314.046875 241.246094 315.035156 247.632812 C 315.113281 248.136719 315.027344 248.433594 314.550781 248.65625 C 311.050781 250.285156 307.410156 250.878906 303.585938 250.25 C 303.070312 250.167969 302.878906 249.953125 302.878906 249.398438 C 302.886719 243.761719 302.394531 238.15625 301.574219 232.585938 Z M 305.300781 222.222656 C 303.792969 222.480469 302.289062 222.402344 300.773438 222.285156 C 300.105469 222.234375 299.847656 221.96875 299.714844 221.339844 C 298.300781 214.707031 296.402344 208.210938 293.933594 201.890625 C 293.636719 201.132812 293.871094 200.972656 294.554688 200.875 C 296.605469 200.570312 298.546875 199.898438 300.316406 198.816406 C 300.964844 198.417969 301.203125 198.539062 301.464844 199.191406 C 302.429688 201.59375 303.46875 203.96875 304.414062 206.382812 C 306.195312 210.945312 307.816406 215.5625 309.1875 220.269531 C 309.371094 220.902344 309.273438 221.148438 308.640625 221.359375 C 307.542969 221.726562 306.449219 222.078125 305.300781 222.222656 Z M 283.65625 179.863281 C 285.445312 179.234375 287.175781 178.601562 288.683594 177.535156 C 289.269531 177.117188 289.539062 177.199219 289.917969 177.796875 C 293.535156 183.523438 296.835938 189.421875 299.773438 195.527344 C 300.066406 196.132812 299.949219 196.40625 299.414062 196.71875 C 297.683594 197.738281 295.839844 198.390625 293.855469 198.71875 C 293.046875 198.851562 292.675781 198.703125 292.34375 197.890625 C 291.277344 195.253906 290.121094 192.65625 288.953125 190.066406 C 287.382812 186.589844 285.53125 183.257812 283.65625 179.863281 Z M 222.945312 168.0625 C 220.050781 170.863281 217.558594 173.988281 215.421875 177.402344 C 214.9375 178.175781 214.828125 179.003906 214.941406 179.894531 C 215.308594 182.761719 216.792969 185.171875 218.105469 187.65625 C 218.222656 187.875 218.40625 188.066406 218.507812 188.292969 C 218.761719 188.875 218.984375 189.511719 218.332031 189.949219 C 217.71875 190.355469 217.136719 190.101562 216.710938 189.566406 C 216.375 189.148438 216.074219 188.695312 215.808594 188.226562 C 214.707031 186.296875 213.800781 184.273438 213.011719 182.167969 C 212.570312 182.382812 212.53125 182.769531 212.390625 183.078125 C 211.511719 184.980469 210.882812 186.980469 210.132812 188.933594 C 209.351562 190.960938 209.71875 192.734375 210.808594 194.476562 C 211.417969 195.453125 212.042969 196.421875 212.621094 197.417969 C 212.910156 197.914062 212.992188 198.5 212.472656 198.890625 C 211.953125 199.285156 211.378906 199.179688 210.898438 198.726562 C 210.363281 198.230469 210.046875 197.570312 209.636719 196.980469 C 209.347656 196.5625 209.203125 196.027344 208.675781 195.664062 C 208.371094 197.167969 208.269531 198.605469 208.195312 200.039062 C 208.140625 201.121094 208.171875 202.203125 208.132812 203.285156 C 208.109375 204.058594 207.914062 204.792969 206.953125 204.777344 C 206.066406 204.765625 205.867188 204.085938 205.832031 203.339844 C 205.824219 203.195312 205.828125 203.050781 205.828125 202.90625 C 205.84375 193.242188 208.320312 184.246094 213.558594 176.128906 C 222.644531 162.058594 235.429688 153.921875 252.28125 152.558594 C 253.929688 152.421875 255.597656 152.507812 257.253906 152.539062 C 258.027344 152.554688 258.765625 152.820312 258.710938 153.769531 C 258.65625 154.734375 257.898438 154.828125 257.121094 154.800781 C 256.796875 154.789062 256.472656 154.773438 256.148438 154.765625 C 254.414062 154.738281 252.6875 154.8125 250.953125 154.898438 C 249.644531 154.964844 249.023438 155.648438 248.609375 156.738281 C 248.007812 158.324219 247.484375 159.929688 247.121094 161.585938 C 247.035156 161.972656 246.9375 162.363281 246.777344 162.71875 C 246.558594 163.199219 246.128906 163.410156 245.617188 163.304688 C 245.152344 163.210938 244.886719 162.882812 244.808594 162.402344 C 244.722656 161.886719 244.816406 161.394531 244.925781 160.902344 C 245.25 159.421875 245.742188 157.988281 246.222656 156.554688 C 246.292969 156.34375 246.539062 155.949219 246.382812 155.761719 C 246.21875 155.558594 245.71875 155.710938 245.476562 155.789062 C 243.117188 156.5 243.53125 156.238281 240.273438 157.261719 C 239.0625 157.640625 238.335938 158.402344 237.789062 159.488281 C 236.660156 161.71875 236.609375 164.140625 236.480469 166.550781 C 236.378906 168.496094 236.367188 170.445312 236.507812 172.390625 C 236.554688 173.015625 236.433594 173.578125 235.714844 173.726562 C 234.953125 173.882812 234.597656 173.386719 234.378906 172.757812 C 234.269531 172.4375 234.234375 172.175781 234.226562 172.128906 C 234.046875 170.363281 233.957031 163.675781 234.609375 161.363281 C 234.875 160.40625 234.972656 160.171875 234.972656 160.171875 C 235.15625 159.710938 235.34375 159.386719 235.265625 159.320312 C 235.21875 159.285156 235.101562 159.367188 234.714844 159.605469 C 234.539062 159.714844 234.355469 159.8125 234.179688 159.921875 C 233.480469 160.367188 230.40625 162.058594 228.367188 163.484375 C 227.5625 164.050781 227.03125 164.773438 226.660156 165.660156 C 225.644531 168.078125 225.460938 170.613281 225.609375 173.195312 C 225.753906 175.757812 226.007812 178.308594 226.511719 180.828125 C 226.625 181.40625 226.558594 181.933594 225.914062 182.160156 C 225.25 182.394531 224.789062 182.09375 224.503906 181.507812 C 224.363281 181.21875 224.246094 180.90625 224.1875 180.59375 C 223.511719 177 223.179688 173.378906 223.359375 169.71875 C 223.390625 169.054688 223.507812 168.390625 223.585938 167.722656 C 223.226562 167.71875 223.097656 167.914062 222.945312 168.0625 Z M 298.429688 137.699219 C 299.210938 138.597656 299.941406 139.539062 300.484375 140.605469 C 300.761719 141.152344 300.6875 141.679688 300.171875 142.046875 C 299.640625 142.425781 299.125 142.257812 298.714844 141.820312 C 298.398438 141.480469 298.136719 141.085938 297.863281 140.707031 C 296.015625 138.113281 293.722656 136.011719 290.957031 134.421875 C 290.164062 133.964844 289.476562 133.984375 288.660156 134.496094 C 284.664062 136.992188 280.996094 139.878906 277.753906 143.304688 C 277.554688 143.511719 277.371094 143.753906 277.128906 143.898438 C 276.636719 144.195312 276.101562 144.296875 275.644531 143.824219 C 275.199219 143.363281 275.234375 142.84375 275.59375 142.355469 C 275.828125 142.035156 276.097656 141.738281 276.371094 141.457031 C 284.351562 133.203125 294.023438 127.9375 305.1875 125.539062 C 320.046875 122.351562 334.222656 124.429688 347.59375 131.710938 C 350.132812 133.09375 352.53125 134.703125 354.816406 136.476562 C 355.785156 137.226562 355.882812 138.261719 355.046875 138.675781 C 354.4375 138.980469 353.941406 138.683594 353.460938 138.316406 C 351.484375 136.792969 349.433594 135.386719 347.257812 134.160156 C 346.875 133.945312 346.542969 133.566406 345.957031 133.628906 C 346.457031 135.164062 346.675781 136.695312 346.652344 138.253906 C 346.640625 139.046875 346.484375 139.878906 345.453125 139.839844 C 344.519531 139.804688 344.351562 139.058594 344.371094 138.269531 C 344.398438 137.253906 344.292969 136.246094 344.042969 135.265625 C 343.496094 133.121094 342.554688 131.410156 340.1875 130.632812 C 337.382812 129.714844 334.625 128.65625 331.738281 127.988281 C 330.070312 127.601562 328.402344 127.222656 326.523438 127.042969 C 326.730469 127.417969 326.855469 127.660156 326.992188 127.894531 C 328.113281 129.785156 329.144531 131.722656 329.953125 133.773438 C 330.453125 135.050781 330.867188 136.359375 331.09375 137.714844 C 331.199219 138.328125 330.941406 138.789062 330.332031 138.96875 C 329.710938 139.152344 329.285156 138.832031 329.007812 138.304688 C 328.890625 138.085938 328.847656 137.828125 328.78125 137.585938 C 327.804688 133.921875 326.152344 130.585938 323.9375 127.515625 C 323.488281 126.886719 322.960938 126.578125 322.15625 126.527344 C 320.207031 126.402344 318.261719 126.367188 316.320312 126.421875 C 313.589844 126.5 310.882812 126.792969 308.195312 127.285156 C 308.214844 127.667969 308.480469 127.765625 308.640625 127.941406 C 311.40625 130.96875 313.800781 134.238281 315.253906 138.117188 C 315.382812 138.449219 315.484375 138.800781 315.542969 139.152344 C 315.640625 139.757812 315.441406 140.246094 314.824219 140.4375 C 314.207031 140.628906 313.769531 140.3125 313.496094 139.785156 C 313.296875 139.402344 313.167969 138.984375 313 138.585938 C 311.414062 134.8125 309.078125 131.5625 306.144531 128.71875 C 305.441406 128.035156 304.738281 127.871094 303.8125 128.152344 C 301.773438 128.761719 299.722656 129.328125 297.738281 130.105469 C 295.945312 130.804688 294.152344 131.515625 292.363281 132.527344 C 294.703125 134.015625 296.699219 135.707031 298.429688 137.699219 Z M 203.171875 138.238281 C 200.382812 139.445312 197.78125 140.980469 195.328125 142.761719 C 194.121094 143.640625 193.457031 143.738281 192.980469 143.09375 C 192.496094 142.433594 192.78125 141.800781 193.972656 140.933594 C 203.765625 133.804688 214.746094 131.382812 226.640625 132.851562 C 237.695312 134.21875 247.515625 138.753906 256.648438 144.933594 C 256.828125 145.054688 257 145.195312 257.136719 145.359375 C 257.492188 145.785156 257.585938 146.261719 257.257812 146.746094 C 256.949219 147.203125 256.46875 147.277344 256.003906 147.128906 C 255.636719 147.011719 255.300781 146.769531 254.972656 146.546875 C 252.671875 144.992188 250.289062 143.5625 247.84375 142.238281 C 247.285156 141.9375 246.722656 141.78125 246.089844 141.8125 C 242.398438 142 239.152344 143.355469 236.289062 145.632812 C 235.132812 146.550781 234.082031 147.601562 232.988281 148.59375 C 232.445312 149.085938 231.847656 149.296875 231.265625 148.71875 C 230.683594 148.136719 230.882812 147.503906 231.386719 146.996094 C 234.183594 144.195312 237.15625 141.648438 241.058594 140.488281 C 241.617188 140.324219 242.167969 140.125 242.941406 139.871094 C 241.015625 139.003906 239.246094 138.410156 237.515625 137.71875 C 236.238281 137.210938 235.054688 137.308594 233.839844 137.75 C 232.789062 138.128906 231.777344 138.589844 230.789062 139.117188 C 227.234375 141.015625 224.304688 143.65625 221.671875 146.65625 C 221.179688 147.21875 220.546875 147.59375 219.886719 147.035156 C 219.175781 146.4375 219.453125 145.742188 219.988281 145.144531 C 221.992188 142.917969 224.054688 140.757812 226.5625 139.0625 C 228.128906 138.003906 229.757812 137.050781 231.609375 136.105469 C 229.113281 135.46875 226.765625 135.152344 224.40625 134.925781 C 224.175781 134.90625 223.921875 135.039062 223.691406 135.128906 C 220.125 136.492188 217.066406 138.578125 214.570312 141.496094 C 213.460938 142.792969 212.554688 144.222656 211.621094 145.636719 C 211.203125 146.277344 210.660156 146.835938 209.847656 146.328125 C 209.027344 145.816406 209.3125 145.085938 209.707031 144.429688 C 211.949219 140.707031 214.679688 137.441406 218.46875 135.179688 C 218.578125 135.117188 218.738281 135.046875 218.683594 134.785156 C 216.570312 134.78125 214.488281 135.15625 212.390625 135.417969 C 210.578125 135.640625 209.140625 136.503906 207.832031 137.683594 C 206.699219 138.703125 205.707031 139.84375 204.871094 141.121094 C 203.777344 142.78125 202.914062 144.570312 202.054688 146.355469 C 201.722656 147.042969 201.253906 147.5625 200.449219 147.203125 C 199.652344 146.847656 199.683594 146.105469 199.988281 145.4375 C 201.042969 143.140625 202.160156 140.875 203.683594 138.839844 C 203.882812 138.570312 204.253906 138.375 204.1875 137.929688 C 203.796875 137.886719 203.492188 138.097656 203.171875 138.238281 Z M 300.046875 164.546875 C 299.996094 166.015625 299.609375 166.59375 298.789062 166.570312 C 297.957031 166.546875 297.683594 165.949219 297.757812 164.449219 C 297.933594 160.816406 297.492188 157.273438 295.613281 154.105469 C 293.691406 150.859375 294.414062 151.175781 290.800781 152.054688 C 290.488281 152.128906 290.175781 152.222656 289.863281 152.3125 C 289.144531 152.527344 288.453125 152.550781 288.164062 151.699219 C 287.878906 150.851562 288.429688 150.410156 289.128906 150.15625 C 290.765625 149.554688 292.476562 149.1875 294.191406 149.042969 C 298.203125 148.703125 302.1875 149.035156 306.097656 150.011719 C 319.757812 153.410156 331.082031 160.640625 340.421875 171.066406 C 343.933594 174.984375 346.738281 179.375 348.648438 184.300781 C 348.949219 185.074219 349.171875 185.875 348.183594 186.332031 C 347.453125 186.675781 346.871094 186.25 346.488281 185.179688 C 345.15625 181.4375 343.09375 178.113281 340.695312 174.980469 C 340.535156 174.769531 340.429688 174.449219 340.042969 174.4375 C 340.027344 174.835938 340.023438 175.230469 339.992188 175.625 C 339.859375 177.328125 339.421875 178.957031 338.722656 180.515625 C 338.421875 181.183594 337.898438 181.597656 337.171875 181.3125 C 336.410156 181.015625 336.4375 180.328125 336.640625 179.652344 C 336.691406 179.480469 336.765625 179.316406 336.832031 179.148438 C 337.726562 176.914062 337.941406 174.621094 337.53125 172.246094 C 337.382812 171.394531 337.074219 170.695312 336.457031 170.074219 C 333.757812 167.351562 330.855469 164.867188 327.75 162.621094 C 327.566406 162.488281 327.394531 162.226562 326.957031 162.445312 C 327.070312 163.246094 327.21875 164.085938 327.308594 164.9375 C 327.535156 167.058594 327.109375 169.097656 326.445312 171.097656 C 326.222656 171.769531 325.734375 172.128906 325.027344 171.925781 C 324.3125 171.714844 324.144531 171.144531 324.296875 170.457031 C 324.363281 170.175781 324.417969 169.890625 324.507812 169.617188 C 325.265625 167.289062 325.242188 164.921875 324.707031 162.566406 C 324.445312 161.433594 324.269531 160.214844 323.089844 159.519531 C 319.917969 157.648438 316.660156 155.953125 313.222656 154.613281 C 312.984375 154.519531 312.734375 154.277344 312.367188 154.554688 C 313.296875 156.640625 313.644531 158.878906 313.839844 161.140625 C 313.992188 162.90625 313.902344 164.667969 313.523438 166.410156 C 313.359375 167.164062 312.976562 167.742188 312.132812 167.578125 C 311.269531 167.414062 311.199219 166.695312 311.292969 165.960938 C 311.308594 165.851562 311.347656 165.75 311.363281 165.644531 C 311.84375 162.675781 311.65625 159.75 310.796875 156.867188 C 310.0625 154.394531 308.816406 152.671875 305.953125 152.25 C 302.890625 151.796875 299.871094 151.160156 296.625 151.21875 C 299.878906 156.410156 300.179688 160.699219 300.046875 164.546875 Z M 244.976562 195.847656 C 247.082031 198.820312 249.328125 201.296875 251.691406 203.667969 C 252.226562 204.203125 252.761719 204.746094 253.433594 205.117188 C 254.019531 205.441406 254.636719 205.589844 255.082031 204.964844 C 255.511719 204.359375 255.246094 203.789062 254.726562 203.351562 C 252.742188 201.664062 251.027344 199.710938 249.324219 197.75 C 247.996094 196.226562 246.796875 194.613281 246.019531 192.714844 C 245.710938 191.957031 245.585938 191.226562 245.773438 190.40625 C 246.304688 188.125 246.894531 185.863281 247.753906 183.65625 C 248.207031 183.78125 248.242188 184.191406 248.410156 184.472656 C 250.25 187.59375 252.472656 190.417969 254.941406 193.058594 C 255.359375 193.507812 255.820312 193.921875 256.386719 194.175781 C 256.917969 194.414062 257.457031 194.464844 257.84375 193.925781 C 258.257812 193.351562 258.085938 192.792969 257.597656 192.386719 C 255.46875 190.613281 253.886719 188.371094 252.246094 186.179688 C 251.105469 184.652344 250.046875 183.054688 249.445312 181.214844 C 249.296875 180.757812 249.160156 180.285156 249.367188 179.839844 C 250.449219 177.484375 251.722656 175.238281 253.375 172.929688 C 254.253906 176.222656 256.210938 178.667969 258.078125 181.160156 C 258.574219 181.820312 259.136719 182.4375 259.722656 183.015625 C 260.28125 183.566406 260.992188 183.871094 261.632812 183.21875 C 262.277344 182.5625 261.789062 181.960938 261.300781 181.4375 C 259.800781 179.816406 258.554688 178.007812 257.324219 176.1875 C 256.753906 175.347656 256.328125 174.4375 255.945312 173.5 C 255.1875 171.625 255.035156 169.867188 256.835938 168.433594 C 257.109375 168.214844 257.320312 167.898438 257.523438 167.601562 C 257.863281 167.101562 257.898438 166.574219 257.445312 166.128906 C 256.945312 165.632812 256.394531 165.753906 255.882812 166.128906 C 255.679688 166.273438 255.519531 166.484375 255.355469 166.671875 C 246.605469 176.734375 242.214844 188.386719 242.523438 201.761719 C 242.679688 208.519531 244.175781 214.980469 246.691406 221.226562 C 246.730469 221.328125 246.785156 221.421875 246.828125 221.523438 C 247.152344 222.296875 247.5625 223.070312 248.5625 222.648438 C 249.515625 222.242188 249.253906 221.390625 248.957031 220.683594 C 247.785156 217.882812 246.871094 215 246.152344 212.058594 C 246.109375 211.871094 246.054688 211.648438 245.976562 211.261719 C 245.867188 210.726562 245.863281 210.609375 245.90625 210.59375 C 245.960938 210.570312 246.070312 210.765625 246.320312 211.054688 C 246.492188 211.257812 246.617188 211.347656 246.863281 211.59375 C 247.707031 212.433594 248.53125 213.300781 249.527344 213.964844 C 249.882812 214.203125 250.28125 214.394531 250.679688 214.542969 C 251.238281 214.757812 251.789062 214.6875 252.089844 214.117188 C 252.40625 213.515625 252.199219 212.964844 251.632812 212.628906 C 249.863281 211.578125 248.570312 210.023438 247.1875 208.550781 C 245.523438 206.78125 244.714844 204.765625 244.78125 202.292969 C 244.835938 200.25 244.761719 198.207031 244.976562 195.847656 Z M 268.363281 130.347656 C 268.386719 130.371094 268.507812 130.289062 268.585938 130.253906 C 269.261719 129.851562 269.941406 129.453125 270.617188 129.042969 C 273.132812 127.519531 275.921875 126.832031 278.785156 126.359375 C 279.5 126.242188 280.140625 126.378906 280.292969 127.191406 C 280.457031 128.058594 279.871094 128.414062 279.125 128.574219 C 278.878906 128.625 278.628906 128.660156 278.378906 128.707031 C 275.40625 129.261719 272.621094 130.269531 270.128906 132.035156 C 268.472656 133.207031 266.929688 134.394531 267.007812 136.734375 C 267.03125 137.464844 266.554688 137.976562 265.757812 137.910156 C 264.988281 137.847656 264.773438 137.273438 264.769531 136.597656 C 264.769531 136.347656 264.804688 136.097656 264.84375 135.847656 C 267.46875 119.164062 276.4375 107.0625 291.289062 99.207031 C 291.863281 98.90625 292.453125 98.621094 293.066406 98.417969 C 293.613281 98.238281 294.167969 98.332031 294.453125 98.925781 C 294.746094 99.539062 294.566406 100.054688 293.996094 100.414062 C 293.753906 100.570312 293.484375 100.675781 293.222656 100.800781 C 290.109375 102.25 287.191406 104.019531 284.5 106.160156 C 284.3125 106.308594 283.941406 106.375 284.039062 106.828125 C 284.332031 106.789062 284.605469 106.746094 284.886719 106.710938 C 286.902344 106.453125 288.914062 106.542969 290.929688 106.746094 C 291.035156 106.757812 291.144531 106.777344 291.246094 106.800781 C 291.976562 106.972656 292.585938 107.308594 292.472656 108.171875 C 292.355469 109.078125 291.660156 109.15625 290.917969 109.054688 C 287.917969 108.65625 284.949219 108.773438 282.011719 109.546875 C 280.800781 109.863281 279.71875 110.328125 278.875 111.3125 C 277.554688 112.847656 276.234375 114.375 275.082031 116.042969 C 274.613281 116.722656 274.160156 117.421875 273.691406 118.105469 C 273.554688 118.304688 273.523438 118.535156 273.648438 118.710938 C 273.777344 118.894531 273.9375 118.726562 274.101562 118.652344 C 277.699219 117.042969 281.453125 116.140625 285.417969 116.214844 C 285.960938 116.222656 286.507812 116.167969 287.023438 116.363281 C 287.578125 116.570312 287.957031 116.949219 287.851562 117.589844 C 287.757812 118.160156 287.363281 118.453125 286.792969 118.496094 C 286.542969 118.511719 286.289062 118.484375 286.039062 118.480469 C 281.121094 118.382812 276.546875 119.59375 272.320312 122.105469 C 271.664062 122.496094 271.011719 122.949219 270.695312 123.648438 C 269.75 125.710938 268.871094 127.800781 268.390625 130.035156 C 268.285156 130.128906 268.257812 130.246094 268.363281 130.347656 Z M 271.683594 157.792969 C 272.402344 161.746094 276.128906 164.230469 280.207031 163.484375 C 284.152344 162.765625 286.605469 159.039062 285.847656 154.914062 C 285.144531 151.09375 281.402344 148.597656 277.445312 149.3125 C 273.453125 150.03125 270.945312 153.730469 271.683594 157.792969 Z M 278.007812 151.472656 C 280.773438 151.058594 283.316406 152.921875 283.714844 155.660156 C 284.117188 158.417969 282.242188 160.949219 279.5 161.347656 C 276.742188 161.75 274.242188 159.867188 273.839844 157.09375 C 273.449219 154.394531 275.316406 151.878906 278.007812 151.472656 Z M 260.6875 148.167969 C 261.238281 151.644531 264.371094 153.941406 267.800781 153.386719 C 271.226562 152.828125 273.53125 149.644531 272.980469 146.21875 C 272.445312 142.890625 269.285156 140.53125 266.015625 141.027344 C 262.46875 141.566406 260.136719 144.6875 260.6875 148.167969 Z M 266.28125 143.296875 C 268.480469 143 270.507812 144.511719 270.792969 146.65625 C 271.074219 148.820312 269.5 150.917969 267.394531 151.183594 C 265.222656 151.453125 263.1875 149.910156 262.894531 147.765625 C 262.59375 145.550781 264.078125 143.589844 266.28125 143.296875 Z M 258.886719 161.90625 C 259.367188 165.226562 262.496094 167.515625 265.859375 167.007812 C 269.121094 166.519531 271.421875 163.417969 270.96875 160.125 C 270.503906 156.746094 267.402344 154.453125 263.976562 154.960938 C 260.601562 155.457031 258.390625 158.472656 258.886719 161.90625 Z M 261.109375 161.550781 C 260.78125 159.445312 262.191406 157.496094 264.296875 157.160156 C 266.414062 156.820312 268.445312 158.316406 268.746094 160.441406 C 269.039062 162.503906 267.550781 164.484375 265.464844 164.8125 C 263.40625 165.136719 261.441406 163.664062 261.109375 161.550781 Z M 261.109375 161.550781 " fill-opacity="1" fill-rule="nonzero"/></g></g></g><g clip-path="url(#012615b92f)"><path fill="#ffffff" d="M 32.980469 119.664062 C 31.417969 126.449219 33.675781 133.238281 38.351562 137.761719 C 38.695312 137.046875 39.054688 136.34375 39.441406 135.648438 C 35.648438 131.660156 33.863281 125.917969 35.1875 120.175781 C 37.285156 111.09375 46.378906 105.410156 55.457031 107.507812 C 64.539062 109.605469 70.214844 118.699219 68.117188 127.773438 C 66.023438 136.847656 56.933594 142.535156 47.855469 140.4375 C 45.792969 139.960938 43.902344 139.128906 42.25 138.011719 C 41.898438 138.6875 41.566406 139.371094 41.253906 140.074219 C 43.070312 141.253906 45.117188 142.132812 47.351562 142.652344 C 57.644531 145.03125 67.953125 138.582031 70.332031 128.289062 C 72.710938 117.996094 66.261719 107.671875 55.96875 105.300781 C 45.675781 102.921875 35.359375 109.371094 32.980469 119.664062 Z M 32.980469 119.664062 " fill-opacity="1" fill-rule="nonzero"/></g><g clip-path="url(#af28f98cd2)"><path fill="#ffffff" d="M 38.351562 137.761719 C 36.988281 140.605469 35.933594 143.597656 35.214844 146.691406 C 30.859375 165.558594 39.683594 184.433594 55.632812 193.660156 C 55.726562 193.769531 55.839844 193.875 55.960938 193.964844 C 59.761719 196.652344 61.152344 198.996094 60.625 201.824219 L 44.773438 270.476562 C 39.574219 273.765625 30.328125 275.332031 17.261719 275.140625 C 16.335938 275.125 15.542969 275.8125 15.433594 276.730469 C 15.324219 277.65625 15.921875 278.511719 16.828125 278.71875 L 77.765625 292.78125 C 78.667969 292.988281 79.585938 292.480469 79.886719 291.609375 C 80.191406 290.726562 79.777344 289.769531 78.9375 289.375 C 66.816406 283.722656 59.183594 278.277344 56.246094 273.160156 L 72.101562 204.472656 C 72.101562 204.472656 72.125 204.417969 72.125 204.390625 C 72.925781 201.625 75.269531 200.140625 79.976562 199.417969 C 80.117188 199.398438 80.246094 199.355469 80.378906 199.308594 C 80.378906 199.308594 80.378906 199.308594 80.382812 199.308594 C 98.667969 197.921875 114.769531 184.847656 119.105469 166.058594 C 121.304688 156.53125 120.175781 146.4375 115.921875 137.644531 C 115.480469 136.742188 114.398438 136.371094 113.492188 136.804688 C 112.589844 137.246094 112.21875 138.328125 112.652344 139.230469 C 116.472656 147.132812 117.546875 155.8125 115.761719 164.382812 C 115.699219 164.675781 115.636719 164.964844 115.570312 165.253906 C 115.460938 165.734375 115.335938 166.210938 115.203125 166.6875 C 109.75 186.898438 89.257812 199.410156 68.699219 194.894531 C 68.523438 194.859375 68.351562 194.820312 68.171875 194.777344 C 47.054688 189.839844 33.851562 168.667969 38.730469 147.519531 C 38.792969 147.257812 38.855469 147.003906 38.917969 146.746094 C 39.136719 145.863281 39.386719 144.988281 39.667969 144.128906 C 40.109375 142.75 40.640625 141.398438 41.226562 140.085938 C 41.539062 139.382812 41.867188 138.707031 42.21875 138.023438 C 44.765625 133.164062 48.316406 128.894531 52.742188 125.414062 C 53.527344 124.792969 53.667969 123.65625 53.046875 122.863281 C 52.425781 122.078125 51.289062 121.9375 50.5 122.558594 C 45.945312 126.136719 42.179688 130.621094 39.40625 135.660156 C 39.019531 136.351562 38.664062 137.058594 38.316406 137.777344 Z M 65.277344 286.175781 L 30.800781 278.222656 C 38.171875 277.40625 43.660156 275.695312 47.425781 273.070312 C 47.792969 272.816406 48.054688 272.429688 48.15625 271.996094 L 64.1875 202.542969 C 64.574219 200.554688 64.324219 198.816406 63.707031 197.308594 C 64.59375 197.585938 65.558594 197.851562 66.59375 198.109375 C 66.847656 198.175781 67.113281 198.238281 67.378906 198.300781 C 67.558594 198.34375 67.730469 198.382812 67.910156 198.417969 C 68.132812 198.464844 68.351562 198.515625 68.574219 198.5625 C 69.550781 198.761719 70.476562 198.929688 71.351562 199.058594 C 70.195312 200.085938 69.25 201.4375 68.703125 203.230469 C 68.664062 203.3125 68.640625 203.402344 68.621094 203.492188 L 52.570312 273.015625 C 52.472656 273.429688 52.527344 273.863281 52.722656 274.242188 C 54.753906 278.222656 58.894531 282.164062 65.285156 286.175781 Z M 65.277344 286.175781 " fill-opacity="1" fill-rule="nonzero"/></g><path fill="#ffffff" d="M 39.691406 144.105469 C 39.40625 144.96875 39.160156 145.84375 38.9375 146.726562 C 43.863281 152.367188 50.5625 156.371094 57.859375 158.054688 C 58.761719 158.261719 59.679688 158.433594 60.601562 158.574219 C 65.648438 159.316406 70.78125 158.957031 75.742188 158.613281 C 78.445312 158.421875 81.238281 158.234375 83.96875 158.21875 C 94.96875 158.179688 105.742188 161.097656 115.210938 166.667969 C 115.339844 166.199219 115.464844 165.714844 115.578125 165.234375 C 115.644531 164.941406 115.707031 164.652344 115.769531 164.363281 C 106.09375 158.8125 95.140625 155.910156 83.960938 155.945312 C 81.15625 155.960938 78.324219 156.152344 75.585938 156.34375 C 70.746094 156.683594 65.738281 157.035156 60.933594 156.324219 C 52.625 155.097656 44.917969 150.65625 39.691406 144.09375 Z M 39.691406 144.105469 " fill-opacity="1" fill-rule="nonzero"/><path fill="#ffffff" d="M 173.875 239.914062 L 173.894531 241.117188 C 173.660156 240.5 173.355469 239.914062 173.003906 239.367188 C 173.289062 239.566406 173.570312 239.746094 173.875 239.914062 Z M 173.875 239.914062 " fill-opacity="1" fill-rule="nonzero"/><path fill="#ffffff" d="M 174.316406 251.917969 L 174.355469 257.769531 L 171.730469 258.605469 L 171.730469 257.644531 C 173.199219 256.074219 174.101562 254.074219 174.300781 251.921875 L 174.316406 251.921875 Z M 174.316406 251.917969 " fill-opacity="1" fill-rule="nonzero"/><path fill="#ffffff" d="M 181.066406 240.816406 L 181.347656 255.550781 L 178.71875 256.382812 L 178.4375 241.140625 C 178.886719 241.148438 179.335938 241.125 179.773438 241.070312 C 180.214844 241.015625 180.636719 240.933594 181.066406 240.824219 Z M 181.066406 240.816406 " fill-opacity="1" fill-rule="nonzero"/><path fill="#ffffff" d="M 173.199219 204.636719 L 173.445312 217.683594 C 172.472656 218.089844 171.605469 218.640625 170.839844 219.308594 L 170.550781 204.15625 C 171.425781 204.328125 172.316406 204.484375 173.199219 204.636719 Z M 173.199219 204.636719 " fill-opacity="1" fill-rule="nonzero"/><path fill="#ffffff" d="M 180.394531 205.445312 L 180.589844 215.566406 L 177.96875 216.316406 L 177.761719 205.257812 C 178.636719 205.347656 179.519531 205.410156 180.402344 205.445312 Z M 180.394531 205.445312 " fill-opacity="1" fill-rule="nonzero"/><path fill="#ffffff" d="M 172.425781 163.832031 L 173.148438 201.957031 C 172.265625 201.796875 171.382812 201.632812 170.5 201.453125 L 169.796875 164.15625 Z M 172.425781 163.832031 " fill-opacity="1" fill-rule="nonzero"/><path fill="#ffffff" d="M 176.96875 163.273438 L 179.601562 162.949219 L 180.355469 202.804688 C 179.472656 202.769531 178.597656 202.699219 177.714844 202.605469 Z M 176.96875 163.273438 " fill-opacity="1" fill-rule="nonzero"/><path fill="#ffffff" d="M 178.894531 125.683594 L 179.511719 158.703125 L 176.886719 159.027344 L 176.285156 127.046875 L 171.742188 127.132812 L 172.347656 159.585938 L 169.722656 159.910156 L 169.082031 125.863281 C 169.066406 125.132812 169.648438 124.53125 170.371094 124.519531 L 177.554688 124.378906 C 177.90625 124.378906 178.238281 124.511719 178.492188 124.746094 C 178.746094 124.992188 178.886719 125.324219 178.894531 125.675781 Z M 178.894531 125.683594 " fill-opacity="1" fill-rule="nonzero"/><path fill="#ffffff" d="M 139.875 248.136719 L 139.8125 250.199219 C 139.742188 252.433594 140.417969 254.570312 141.742188 256.328125 L 139.882812 248.136719 Z M 139.875 248.136719 " fill-opacity="1" fill-rule="nonzero"/><g clip-path="url(#ee6193d8ee)"><path fill="#ffffff" d="M 201.527344 155.980469 L 203.390625 286.289062 L 145.867188 293.417969 L 116.957031 166.460938 Z M 197.910156 198.039062 L 197.378906 160.75 L 122.097656 170.074219 L 129.929688 204.464844 C 133.371094 201.230469 138.183594 199.003906 143.582031 198.261719 C 150.375 197.328125 157.269531 198.613281 163.207031 199.886719 C 164.011719 200.066406 164.820312 200.238281 165.625 200.417969 C 167.242188 200.769531 168.867188 201.136719 170.5 201.460938 C 171.382812 201.644531 172.265625 201.8125 173.148438 201.960938 C 174.667969 202.222656 176.183594 202.445312 177.707031 202.605469 C 178.582031 202.699219 179.464844 202.769531 180.347656 202.804688 C 180.898438 202.839844 181.449219 202.851562 182.007812 202.851562 C 188.394531 202.894531 193.980469 201.195312 197.914062 198.039062 Z M 198.296875 225.585938 L 197.949219 201.265625 C 194.777344 203.339844 190.890625 204.699219 186.558594 205.230469 C 185.085938 205.417969 183.554688 205.5 181.980469 205.492188 C 181.449219 205.492188 180.917969 205.472656 180.394531 205.453125 C 179.511719 205.410156 178.636719 205.347656 177.753906 205.265625 C 176.230469 205.121094 174.699219 204.90625 173.191406 204.652344 C 172.308594 204.5 171.417969 204.339844 170.542969 204.167969 C 168.695312 203.804688 166.859375 203.398438 165.054688 202.996094 C 164.253906 202.816406 163.449219 202.644531 162.648438 202.472656 C 156.9375 201.238281 150.300781 200.011719 143.941406 200.878906 C 138.453125 201.636719 133.675781 204.066406 130.628906 207.535156 L 139.875 248.152344 L 140.011719 243.84375 C 140.09375 241.242188 141.183594 238.828125 143.082031 237.050781 C 144.976562 235.273438 147.453125 234.335938 150.050781 234.417969 L 165.109375 234.898438 C 167.074219 234.960938 168.882812 235.601562 170.378906 236.652344 C 169.875 235.863281 169.496094 235.011719 169.226562 234.085938 L 167.859375 229.34375 C 166.785156 225.597656 168.066406 221.722656 170.824219 219.316406 C 171.589844 218.648438 172.460938 218.097656 173.433594 217.691406 C 173.785156 217.539062 174.15625 217.40625 174.535156 217.296875 L 177.953125 216.316406 L 180.574219 215.566406 L 184.917969 214.316406 C 187.414062 213.601562 190.046875 213.898438 192.316406 215.160156 C 194.59375 216.421875 196.242188 218.488281 196.957031 220.984375 L 198.273438 225.585938 Z M 198.910156 268.535156 L 198.378906 230.984375 C 198.179688 231.722656 197.882812 232.445312 197.503906 233.132812 C 196.242188 235.410156 194.164062 237.058594 191.667969 237.78125 L 181.285156 240.761719 C 181.214844 240.78125 181.132812 240.800781 181.066406 240.824219 C 180.636719 240.933594 180.210938 241.023438 179.773438 241.070312 C 179.339844 241.117188 178.878906 241.148438 178.4375 241.140625 C 176.859375 241.117188 175.300781 240.707031 173.878906 239.917969 C 173.578125 239.753906 173.289062 239.574219 173.011719 239.375 C 173.371094 239.925781 173.667969 240.511719 173.902344 241.125 C 174.363281 242.304688 174.589844 243.59375 174.550781 244.9375 L 174.34375 251.308594 C 174.34375 251.515625 174.320312 251.722656 174.300781 251.921875 C 174.101562 254.074219 173.199219 256.074219 171.722656 257.644531 C 171.585938 257.804688 171.433594 257.949219 171.28125 258.09375 C 170.832031 258.507812 170.351562 258.886719 169.851562 259.203125 C 169.882812 259.191406 169.910156 259.183594 169.941406 259.171875 L 171.734375 258.605469 L 174.363281 257.769531 L 178.726562 256.390625 L 181.355469 255.558594 L 184.304688 254.625 C 186.78125 253.839844 189.414062 254.066406 191.730469 255.261719 C 194.039062 256.460938 195.742188 258.480469 196.53125 260.960938 L 198.921875 268.539062 Z M 195.1875 231.851562 C 196.109375 230.191406 196.324219 228.28125 195.800781 226.453125 L 194.433594 221.710938 C 193.910156 219.890625 192.710938 218.371094 191.046875 217.457031 C 189.726562 216.722656 188.230469 216.433594 186.753906 216.613281 C 186.386719 216.664062 186.015625 216.730469 185.65625 216.839844 L 175.265625 219.828125 C 171.5 220.902344 169.324219 224.847656 170.40625 228.613281 L 171.769531 233.355469 C 172.292969 235.175781 173.492188 236.683594 175.15625 237.601562 C 176.808594 238.527344 178.726562 238.738281 180.554688 238.222656 L 190.9375 235.246094 C 191.847656 234.980469 192.683594 234.546875 193.40625 233.976562 C 194.128906 233.402344 194.738281 232.6875 195.191406 231.859375 Z M 199.109375 282.566406 L 198.992188 274.519531 C 198.820312 275.070312 198.597656 275.613281 198.328125 276.136719 C 197.128906 278.441406 195.109375 280.152344 192.628906 280.9375 L 180.03125 284.929688 L 199.117188 282.566406 Z M 195.992188 274.925781 C 196.859375 273.234375 197.027344 271.320312 196.460938 269.511719 L 194 261.75 C 193.425781 259.941406 192.1875 258.464844 190.503906 257.589844 C 189.214844 256.929688 187.789062 256.675781 186.375 256.847656 C 185.945312 256.902344 185.511719 256.992188 185.089844 257.128906 L 170.722656 261.679688 C 166.992188 262.867188 164.917969 266.863281 166.09375 270.589844 L 168.558594 278.351562 C 169.734375 282.082031 173.734375 284.15625 177.464844 282.976562 L 191.835938 278.425781 C 192.730469 278.136719 193.558594 277.691406 194.261719 277.097656 C 194.964844 276.503906 195.550781 275.773438 195.992188 274.933594 Z M 171.902344 244.84375 C 172.023438 240.925781 168.949219 237.644531 165.035156 237.519531 L 149.976562 237.039062 C 149.597656 237.023438 149.222656 237.042969 148.859375 237.09375 C 147.375 237.277344 145.996094 237.917969 144.886719 238.960938 C 143.507812 240.257812 142.707031 242.015625 142.652344 243.910156 L 142.445312 250.289062 C 142.390625 252.183594 143.066406 253.984375 144.371094 255.371094 C 145.664062 256.75 147.425781 257.550781 149.320312 257.605469 L 164.386719 258.085938 C 164.757812 258.101562 165.136719 258.085938 165.503906 258.039062 C 166.976562 257.851562 168.355469 257.203125 169.46875 256.164062 C 170.847656 254.867188 171.644531 253.109375 171.703125 251.214844 L 171.90625 244.84375 Z M 149.121094 288.75 L 173.390625 285.742188 C 170.039062 285.0625 167.144531 282.625 166.035156 279.136719 L 163.578125 271.382812 C 162.222656 267.09375 163.992188 262.546875 167.621094 260.238281 C 167.039062 260.433594 166.433594 260.570312 165.8125 260.644531 C 165.308594 260.707031 164.804688 260.734375 164.289062 260.714844 L 149.230469 260.230469 C 146.632812 260.148438 144.21875 259.058594 142.4375 257.164062 C 142.191406 256.894531 141.949219 256.613281 141.734375 256.324219 Z M 149.121094 288.75 " fill-opacity="1" fill-rule="nonzero"/></g></svg>